<svg width="59" height="58" viewBox="0 0 59 58" fill="none" xmlns="http://www.w3.org/2000/svg">
<path fill-rule="evenodd" clip-rule="evenodd" d="M16.5579 56.6963C16.1479 57.7463 14.9779 58.2662 13.9379 57.8562C12.8879 57.4462 12.3679 56.2763 12.7779 55.2363C15.5179 48.1463 22.3979 43.1162 30.4479 43.1162C38.4979 43.1162 45.3779 48.1463 48.1179 55.2363C48.5179 56.2763 47.9979 57.4562 46.9579 57.8562C45.9079 58.2562 44.7379 57.7363 44.3379 56.6963C42.1879 51.1263 36.7779 47.1763 30.4479 47.1763C24.1179 47.1763 18.7179 51.1363 16.5679 56.6963H16.5579Z" fill="url(#paint0_linear_239_409)"/>
<path fill-rule="evenodd" clip-rule="evenodd" d="M35.3279 28.7264C35.3279 28.7264 34.4079 26.4464 34.3479 23.7264C34.2779 20.7164 35.2279 17.2663 38.9979 15.3363C45.7379 11.8863 54.0379 14.3165 57.6879 18.5165C58.1379 19.0265 58.2979 19.7263 58.1079 20.3863C57.9279 21.0363 57.4379 21.5565 56.7979 21.7765C56.7979 21.7765 53.4779 22.9865 51.2079 27.5165C50.0879 29.7565 47.2279 32.1564 44.1879 32.9864C42.5079 33.4464 40.7979 33.4365 39.2679 32.8165C37.7179 32.1965 36.3079 30.9465 35.3579 28.7665C35.3579 28.7465 35.3479 28.7264 35.3379 28.7164L35.3279 28.7264ZM39.0779 27.1964V27.2164C39.5179 28.1764 40.0779 28.7865 40.7779 29.0665C41.5079 29.3565 42.3179 29.2963 43.1079 29.0863C45.0179 28.5663 46.8679 27.1264 47.5679 25.7164C49.1079 22.6264 51.0579 20.6965 52.6279 19.5265C49.5279 17.5965 44.8079 16.9264 40.8379 18.9564C38.7579 20.0164 38.3579 21.9763 38.3979 23.6363C38.4379 25.4463 39.0079 26.9764 39.0779 27.1964Z" fill="url(#paint1_linear_239_409)"/>
<path fill-rule="evenodd" clip-rule="evenodd" d="M25.0679 22.3261C22.8079 24.4561 20.6479 25.2862 18.7079 25.3662C15.7879 25.4862 13.1879 23.8661 11.1479 21.5861C9.19788 19.4061 7.75788 16.6662 6.94788 14.9362C5.18788 11.1362 0.517891 5.96626 0.517891 5.96626C0.0778913 5.48626 -0.0921099 4.81624 0.0478901 4.18624C0.18789 3.55624 0.617888 3.0163 1.21789 2.7563C9.14789 -0.723696 18.7779 -1.64381 26.2979 4.38619C29.7979 7.18619 30.2579 10.7563 29.5079 14.0463C28.5179 18.4063 25.1979 22.1962 25.1979 22.1962C25.1579 22.2462 25.1079 22.2861 25.0579 22.3361L25.0679 22.3261ZM22.2179 19.4362H22.2279C22.5679 19.0262 24.1179 17.1163 25.0579 14.7263C25.9579 12.4463 26.3579 9.62634 23.7679 7.54634C18.2879 3.15634 11.4579 3.40626 5.41789 5.46626C7.08789 7.52626 9.45788 10.6563 10.6479 13.2163C11.3279 14.6863 12.5379 17.0162 14.1879 18.8662C15.3879 20.2162 16.8179 21.3663 18.5479 21.2963C19.6879 21.2463 20.8979 20.6562 22.2179 19.4262V19.4362Z" fill="url(#paint2_linear_239_409)"/>
<path fill-rule="evenodd" clip-rule="evenodd" d="M31.0679 45.5862C30.8279 46.6762 29.7379 47.3663 28.6479 47.1263C27.5579 46.8863 26.8679 45.7963 27.1079 44.7063C27.1079 44.7063 28.9579 36.3664 27.1079 27.7464C25.9179 22.2164 23.1879 16.5462 17.2479 13.0762C16.2779 12.5062 15.9579 11.2664 16.5179 10.2964C17.0879 9.32643 18.3279 9.00645 19.2979 9.56645C26.3379 13.6765 29.6779 20.3363 31.0779 26.8863C33.1179 36.3863 31.0779 45.5762 31.0779 45.5762L31.0679 45.5862Z" fill="url(#paint3_linear_239_409)"/>
<path fill-rule="evenodd" clip-rule="evenodd" d="M31.9479 34.7264C31.7279 35.8264 30.6579 36.5365 29.5579 36.3165C28.4579 36.0965 27.7479 35.0264 27.9679 33.9264C27.9679 33.9264 28.8179 29.1963 34.9679 23.3863C35.7779 22.6163 37.0679 22.6564 37.8379 23.4664C38.6079 24.2764 38.5679 25.5663 37.7579 26.3363C32.7979 31.0263 31.9479 34.7364 31.9479 34.7364V34.7264Z" fill="url(#paint4_linear_239_409)"/>
<defs>
<linearGradient id="paint0_linear_239_409" x1="12.6379" y1="50.5562" x2="48.2479" y2="50.5562" gradientUnits="userSpaceOnUse">
<stop stop-color="#6FA8FF"/>
<stop offset="1" stop-color="#C77CFF"/>
</linearGradient>
<linearGradient id="paint1_linear_239_409" x1="34.3379" y1="23.5164" x2="58.1779" y2="23.5164" gradientUnits="userSpaceOnUse">
<stop stop-color="#6FA8FF"/>
<stop offset="1" stop-color="#C77CFF"/>
</linearGradient>
<linearGradient id="paint2_linear_239_409" x1="0.00789026" y1="12.6862" x2="29.8179" y2="12.6862" gradientUnits="userSpaceOnUse">
<stop stop-color="#6FA8FF"/>
<stop offset="1" stop-color="#C77CFF"/>
</linearGradient>
<linearGradient id="paint3_linear_239_409" x1="16.2379" y1="28.2364" x2="31.9779" y2="28.2364" gradientUnits="userSpaceOnUse">
<stop stop-color="#6FA8FF"/>
<stop offset="1" stop-color="#C77CFF"/>
</linearGradient>
<linearGradient id="paint4_linear_239_409" x1="27.9279" y1="29.5864" x2="38.3879" y2="29.5864" gradientUnits="userSpaceOnUse">
<stop stop-color="#6FA8FF"/>
<stop offset="1" stop-color="#C77CFF"/>
</linearGradient>
</defs>
</svg>