<svg width="61" height="59" viewBox="0 0 61 59" fill="none" xmlns="http://www.w3.org/2000/svg">
<path d="M60.9 47.8545C60.61 46.4745 59.8 45.3044 58.62 44.5344C57.44 43.7744 56.03 43.5345 54.66 43.8445L48.3 45.3044V42.7043C49.58 41.5043 50.9 39.9344 51.85 38.5044C53.51 35.9944 54.68 33.2344 55.33 30.3044C56.11 26.8244 56.13 23.1345 55.38 19.6345C55.24 18.9945 54.61 18.5844 53.97 18.7144C53.33 18.8544 52.92 19.4845 53.05 20.1245C53.73 23.2845 53.71 26.6244 53.01 29.7744C52.42 32.4244 51.36 34.9146 49.86 37.1846C49.42 37.8546 48.8801 38.5644 48.3 39.2444V26.0344C48.3 25.3744 47.77 24.8445 47.11 24.8445H37.6801V12.1245C37.6801 11.4645 37.15 10.9346 36.49 10.9346L25.87 10.8945C25.55 10.8945 25.25 11.0144 25.03 11.2444C24.81 11.4644 24.6801 11.7745 24.6801 12.0845V18.7043H15.25C14.59 18.7043 14.0601 19.2345 14.0601 19.8945V31.6943H11.4V30.0745C11.4 29.4145 10.87 28.8845 10.21 28.8845H8.98999C8.77999 27.7345 8.66 26.5746 8.63 25.4146C8.56001 22.5946 9.00996 19.8243 9.95996 17.1943C10.18 16.5843 10.43 15.9745 10.71 15.3845C10.99 14.7845 10.73 14.0744 10.13 13.8044C9.53 13.5244 8.82005 13.7845 8.55005 14.3845C8.25005 15.0345 7.96997 15.7145 7.71997 16.3945C6.66997 19.3045 6.17 22.3544 6.25 25.4844C6.28 26.6244 6.38995 27.7645 6.56995 28.8945H1.18994C0.529941 28.8945 0 29.4245 0 30.0845V51.0344C0 51.6944 0.529941 52.2244 1.18994 52.2244H10.21C10.87 52.2244 11.4 51.6944 11.4 51.0344V49.9045H15.88L34.04 57.0244C35.74 57.6944 37.51 58.0244 39.3 58.0244C40.49 58.0244 41.69 57.8745 42.86 57.5745L57.09 53.9543C59.79 53.2643 61.46 50.5945 60.9 47.8645V47.8545ZM45.91 27.2244V45.8445L42.72 46.5745C42.38 46.6545 42.0301 46.7144 41.6801 46.7644C40.3501 46.9444 39.0001 46.9045 37.6801 46.6445C37.6801 46.6445 37.67 46.6445 37.66 46.6445V44.8345C38.57 43.4745 38.87 41.7643 38.39 40.1943C38.26 39.7543 38.07 39.3343 37.83 38.9443C37.78 38.8543 37.72 38.7646 37.66 38.6846V27.2244H45.9H45.91ZM27.0601 13.2744L35.29 13.3044V36.7944L30.6899 34.8945L27.0601 33.3945V13.2944V13.2744ZM16.4399 21.0845H24.67V32.3945L23.1899 31.7844C23.0499 31.7244 22.89 31.6943 22.73 31.6943H16.4301V21.0845H16.4399ZM9.02002 49.8245H2.38V31.2644H8H9V49.8245H9.02002ZM56.5 51.6345L42.27 55.2544C39.81 55.8744 37.27 55.7144 34.91 54.7944L16.54 47.5945C16.4 47.5445 16.25 47.5144 16.1 47.5144H11.39V34.0845H22.49L30.2 37.2744L34.42 39.0244C35.91 39.6444 36.63 41.3945 36.02 42.8845C35.9 43.1845 35.74 43.4644 35.54 43.7244C34.79 44.6644 33.57 45.0844 32.42 44.8044H32.39C32.32 44.7844 32.2501 44.7644 32.1801 44.7344L24.16 41.6545C24.09 41.6245 24.0601 41.6145 24.0601 41.6145C23.4501 41.3745 22.76 41.6844 22.52 42.2944C22.28 42.9044 22.59 43.5945 23.2 43.8345C23.2 43.8345 27.72 45.5745 31.17 46.9045C31.24 46.9345 31.31 46.9544 31.38 46.9844L34.03 48.0044C34.83 48.3144 35.63 48.6145 36.46 48.8345C37.87 49.1945 39.34 49.3444 40.8 49.2644C41.62 49.2244 42.44 49.1046 43.25 48.9246L47.36 47.9844C47.36 47.9844 47.36 47.9844 47.37 47.9844L55.17 46.1943C55.91 46.0243 56.6701 46.1545 57.3101 46.5645C57.9501 46.9745 58.39 47.6145 58.54 48.3545C58.85 49.8345 57.94 51.2745 56.48 51.6545L56.5 51.6345Z" fill="url(#paint0_linear_239_365)"/>
<path d="M15.23 8.48448C15.51 8.48448 15.8001 8.38467 16.0301 8.17467C18.1601 6.25467 20.7 4.72449 23.37 3.74449C26.27 2.68449 29.45 2.23468 32.57 2.43468C34.8 2.58468 36.99 3.0546 39.07 3.8546C39.68 4.0846 40.37 3.78466 40.61 3.16466C40.84 2.55466 40.5401 1.86462 39.9201 1.62462C37.6201 0.744618 35.2 0.22455 32.73 0.0545497C29.28 -0.17545 25.7701 0.324501 22.5601 1.5045C19.6001 2.5845 16.79 4.28465 14.44 6.40465C13.95 6.84465 13.91 7.59458 14.35 8.08458C14.59 8.34458 14.91 8.47447 15.23 8.47447V8.48448Z" fill="url(#paint1_linear_239_365)"/>
<path d="M42.2801 16.9843C42.5101 17.1843 42.7801 17.2744 43.0601 17.2744C43.3901 17.2744 43.72 17.1345 43.96 16.8645L53.76 5.57443C54.19 5.07443 54.1401 4.3245 53.6401 3.8945C53.1401 3.4645 52.39 3.51437 51.96 4.01437L42.1601 15.3044C41.7301 15.8044 41.7801 16.5543 42.2801 16.9843Z" fill="url(#paint2_linear_239_365)"/>
<path d="M51.0699 11.8945C49.4199 11.8945 48.08 13.2345 48.08 14.8845C48.08 16.5345 49.4199 17.8745 51.0699 17.8745C52.7199 17.8745 54.0601 16.5345 54.0601 14.8845C54.0601 13.2345 52.7199 11.8945 51.0699 11.8945ZM51.0699 15.4944C50.7299 15.4944 50.46 15.2245 50.46 14.8845C50.46 14.5445 50.7299 14.2744 51.0699 14.2744C51.4099 14.2744 51.6801 14.5445 51.6801 14.8845C51.6801 15.2245 51.4099 15.4944 51.0699 15.4944Z" fill="url(#paint3_linear_239_365)"/>
<path d="M44.45 9.23438C46.1 9.23438 47.4399 7.89438 47.4399 6.24438C47.4399 4.59438 46.1 3.25439 44.45 3.25439C42.8 3.25439 41.46 4.59438 41.46 6.24438C41.46 7.89438 42.8 9.23438 44.45 9.23438ZM44.45 5.63452C44.79 5.63452 45.0601 5.90438 45.0601 6.24438C45.0601 6.58438 44.79 6.85449 44.45 6.85449C44.11 6.85449 43.84 6.58438 43.84 6.24438C43.84 5.90438 44.11 5.63452 44.45 5.63452Z" fill="url(#paint4_linear_239_365)"/>
<path d="M11 11.2844C11.19 11.7444 11.66 12.0444 12.16 12.0144C12.65 11.9844 13.08 11.6546 13.24 11.1846C13.39 10.7146 13.2299 10.1745 12.8299 9.8745C12.4299 9.5645 11.8599 9.54445 11.4399 9.82445C10.9699 10.1344 10.79 10.7544 11 11.2744V11.2844Z" fill="url(#paint5_linear_239_365)"/>
<defs>
<linearGradient id="paint0_linear_239_365" x1="0" y1="34.4445" x2="61.01" y2="34.4445" gradientUnits="userSpaceOnUse">
<stop stop-color="#6FA8FF"/>
<stop offset="1" stop-color="#C77CFF"/>
</linearGradient>
<linearGradient id="paint1_linear_239_365" x1="14.04" y1="4.24451" x2="40.69" y2="4.24451" gradientUnits="userSpaceOnUse">
<stop stop-color="#6FA8FF"/>
<stop offset="1" stop-color="#C77CFF"/>
</linearGradient>
<linearGradient id="paint2_linear_239_365" x1="41.8701" y1="10.4444" x2="54.06" y2="10.4444" gradientUnits="userSpaceOnUse">
<stop stop-color="#6FA8FF"/>
<stop offset="1" stop-color="#C77CFF"/>
</linearGradient>
<linearGradient id="paint3_linear_239_365" x1="48.08" y1="14.8845" x2="54.0601" y2="14.8845" gradientUnits="userSpaceOnUse">
<stop stop-color="#6FA8FF"/>
<stop offset="1" stop-color="#C77CFF"/>
</linearGradient>
<linearGradient id="paint4_linear_239_365" x1="41.46" y1="6.24438" x2="47.4399" y2="6.24438" gradientUnits="userSpaceOnUse">
<stop stop-color="#6FA8FF"/>
<stop offset="1" stop-color="#C77CFF"/>
</linearGradient>
<linearGradient id="paint5_linear_239_365" x1="10.91" y1="10.8244" x2="13.2899" y2="10.8244" gradientUnits="userSpaceOnUse">
<stop stop-color="#6FA8FF"/>
<stop offset="1" stop-color="#C77CFF"/>
</linearGradient>
</defs>
</svg>