<svg width="73" height="58" viewBox="0 0 73 58" fill="none" xmlns="http://www.w3.org/2000/svg">
<path d="M71.9905 47.6775C71.8005 46.5475 71.1805 45.5475 70.2405 44.8875C69.3005 44.2175 68.1605 43.9575 67.0305 44.1475L66.2905 44.2676V38.4876C66.2905 37.8576 66.0305 37.2674 65.5705 36.8374C65.1005 36.3974 64.4905 36.1876 63.8605 36.2476C55.5505 36.9176 45.8905 38.2376 36.0205 45.2976C26.1505 38.2276 16.4905 36.9176 8.18054 36.2476C7.54054 36.1976 6.93052 36.4074 6.47052 36.8374C6.00052 37.2674 5.75055 37.8476 5.75055 38.4876V44.2676L5.0105 44.1475C3.8705 43.9575 2.73054 44.2175 1.80054 44.8875C0.87054 45.5575 0.24055 46.5475 0.0605496 47.6875C-0.12945 48.8275 0.13054 49.9675 0.80054 50.8975C1.47054 51.8375 2.46053 52.4575 3.60053 52.6375L35.2405 57.9375C35.4905 57.9875 35.7505 58.0076 36.0205 58.0076C36.2605 58.0076 36.5005 57.9875 36.7405 57.9475L68.4605 52.6375C69.6005 52.4475 70.5905 51.8275 71.2605 50.8975C71.9305 49.9675 72.1906 48.8275 72.0005 47.6875L71.9905 47.6775ZM64.0405 38.4976V44.6475L37.1505 49.1475V47.2676C46.6105 40.4176 55.6205 39.1776 64.0405 38.4976ZM8.00055 38.4976C16.4206 39.1776 25.4305 40.4276 34.8905 47.2676V49.1475L8.00055 44.6475V38.4976ZM69.4205 49.5874C69.1005 50.0374 68.6305 50.3275 68.0805 50.4175L36.3705 55.7276C36.1205 55.7676 35.8705 55.7676 35.6405 55.7276H35.6205L3.97052 50.4275C3.43052 50.3375 2.96051 50.0374 2.64051 49.5974C2.32051 49.1474 2.20053 48.6076 2.29053 48.0576C2.38053 47.5176 2.68055 47.0476 3.12055 46.7276C3.47055 46.4776 3.88055 46.3474 4.31055 46.3474C4.42055 46.3474 4.54052 46.3475 4.65052 46.3775L35.8505 51.5974C35.9705 51.6174 36.1005 51.6174 36.2205 51.5974L67.4205 46.3775C67.9605 46.2875 68.5005 46.4176 68.9505 46.7276C69.4005 47.0376 69.6905 47.5176 69.7805 48.0576C69.8705 48.5976 69.7405 49.1474 69.4205 49.5974V49.5874ZM4.55054 16.1675L8.16053 17.5476V23.5576C7.88053 23.7676 7.65051 24.0575 7.52051 24.4075L5.61054 29.5076C5.61054 29.5076 5.5805 29.5975 5.5705 29.6475C5.4505 30.1675 5.57052 30.6875 5.90052 31.1175C5.90052 31.1175 5.90053 31.1175 5.91053 31.1275C6.24053 31.5475 6.74052 31.7876 7.28052 31.7876H11.3105C11.8605 31.7876 12.3605 31.5475 12.6905 31.1175C13.0205 30.6975 13.1405 30.1575 13.0205 29.6375C13.0105 29.5875 12.9905 29.5376 12.9805 29.4976L11.0705 24.3975C10.9405 24.0475 10.7105 23.7576 10.4305 23.5476V18.3975L18.1105 21.3374V29.3775C18.1105 31.1175 20.0005 32.4275 23.9005 33.3775C27.1705 34.1775 31.4805 34.6175 36.0405 34.6175C40.6005 34.6175 44.9205 34.1775 48.1805 33.3775C52.0805 32.4275 53.9705 31.1175 53.9705 29.3775V21.3374L67.5105 16.1575C68.4105 15.8175 68.9905 14.9776 68.9905 14.0176C68.9905 13.0576 68.4105 12.2175 67.5205 11.8775L36.8705 0.1575C36.3305 -0.0525 35.7705 -0.0525 35.2305 0.1575L4.56055 11.8775C3.67055 12.2275 3.09052 13.0676 3.09052 14.0176C3.09052 14.9676 3.67055 15.8175 4.56055 16.1575L4.55054 16.1675ZM8.00055 29.5476L9.29053 26.1075L10.5805 29.5476H8.00055ZM51.7105 26.6075C50.8105 26.1475 49.6305 25.7375 48.1705 25.3775C44.9005 24.5775 40.5905 24.1375 36.0305 24.1375C31.4705 24.1375 27.1505 24.5775 23.8905 25.3775C22.4305 25.7375 21.2505 26.1375 20.3505 26.6075V15.5276C20.4305 15.2676 21.4005 14.3875 24.7805 13.6075C27.8305 12.9075 31.8205 12.5176 36.0305 12.5176C40.2405 12.5176 44.2405 12.9075 47.2805 13.6075C50.6605 14.3875 51.6305 15.2676 51.7105 15.5276V26.6075ZM47.2506 31.2876C44.2006 31.9876 40.2105 32.3775 36.0205 32.3775C31.8305 32.3775 27.8405 31.9876 24.7905 31.2876C21.4605 30.5276 20.4605 29.6575 20.3405 29.3775C20.4505 29.1075 21.4505 28.2376 24.7805 27.4676C27.8305 26.7676 31.8205 26.3775 36.0105 26.3775C40.2005 26.3775 44.1905 26.7676 47.2405 27.4676C50.5705 28.2376 51.5705 29.0975 51.6905 29.3775C51.5805 29.6475 50.5705 30.5176 47.2405 31.2876H47.2506ZM5.35053 13.9776L36.0105 2.2576C36.0105 2.2576 36.0105 2.2576 36.0205 2.2576C36.0205 2.2576 36.0205 2.2576 36.0405 2.2576L66.6905 13.9776C66.6905 13.9776 66.7205 13.9976 66.7205 14.0176C66.7205 14.0376 66.7205 14.0476 66.7205 14.0476C66.7205 14.0476 66.7205 14.0476 66.7005 14.0576L53.9605 18.9275V15.5076C53.9605 11.3676 42.6905 10.2676 36.0305 10.2676C29.3705 10.2676 18.1005 11.3676 18.1005 15.5076V18.9275L5.36054 14.0576C5.36054 14.0576 5.33051 14.0476 5.33051 14.0176C5.33051 13.9876 5.33054 13.9876 5.36054 13.9776H5.35053Z" fill="url(#paint0_linear_239_388)"/>
<defs>
<linearGradient id="paint0_linear_239_388" x1="-0.00945158" y1="29.0075" x2="72.0505" y2="29.0075" gradientUnits="userSpaceOnUse">
<stop stop-color="#6FA8FF"/>
<stop offset="1" stop-color="#C77CFF"/>
</linearGradient>
</defs>
</svg>