<svg width="58" height="58" viewBox="0 0 58 58" fill="none" xmlns="http://www.w3.org/2000/svg">
<path d="M54.13 27.0999C54.15 12.1499 42.05 0.0200248 27.1 2.47576e-05C12.15 -0.0199752 0.0200248 12.0801 2.47577e-05 27.0301C-0.0199752 41.9801 12.08 54.1099 27.03 54.1299C28.66 54.1299 30.29 53.99 31.89 53.7C38.03 59.6 47.79 59.41 53.7 53.27C59.44 47.3 59.44 37.8599 53.7 31.8899C53.99 30.3099 54.13 28.7099 54.13 27.0999ZM51.98 30.3399C51.02 29.5999 49.99 28.97 48.88 28.47C49.11 27.85 49.35 27.1599 49.62 26.3699C49.88 25.6099 49.74 24.7699 49.26 24.1299C48.84 23.5299 48.14 23.19 47.41 23.23C46.88 23.24 46.44 22.8201 46.42 22.2901C46.4 21.7601 46.83 21.3201 47.36 21.3001H48.33C49.31 21.3001 50.19 20.7101 50.55 19.8001L50.86 19.0301C51.74 21.6201 52.19 24.3499 52.19 27.0899C52.19 28.1799 52.12 29.2599 51.97 30.3399H51.98ZM49.82 16.45L48.76 19.0899C48.69 19.2599 48.52 19.3699 48.34 19.3699H47.37C45.78 19.3899 44.5 20.68 44.47 22.27C44.47 23.05 44.8 23.7999 45.36 24.3499C45.93 24.8899 46.7 25.1899 47.48 25.1699C47.76 25.1699 47.87 25.55 47.79 25.76C47.53 26.53 47.3 27.1801 47.08 27.7901C42.46 26.3601 37.43 27.2001 33.51 30.0501C33.3 30.0201 33.09 30.01 32.88 30.01C29.68 30.01 27.09 27.42 27.09 24.22C27.09 24.16 27.09 24.1001 27.09 24.0401C27.29 20.8501 29.96 18.3699 33.16 18.4199H38.57C40.1 18.4399 41.39 17.3001 41.56 15.7801C41.68 14.1601 40.46 12.7499 38.84 12.6299C38.78 12.6299 38.73 12.6299 38.67 12.6299H32.15C31.36 12.6299 30.64 12.21 30.25 11.52C29.89 10.9 29.89 10.13 30.27 9.51003V9.48001C30.43 9.23001 32.85 5.20004 34.15 3.02004C41.04 5.06004 46.73 9.94998 49.79 16.45H49.82ZM16.49 4.3699C18.04 3.6499 19.65 3.07997 21.32 2.68997V4.58987C21.32 4.96987 21.09 5.32001 20.74 5.48001L17.84 6.72C17.34 6.93 16.77 6.68997 16.56 6.18997C16.51 6.07997 16.49 5.95987 16.49 5.83987V4.3699ZM7.35003 11.6599H10.52C11.17 11.6899 11.67 12.2299 11.64 12.8799C11.64 13.1299 11.54 13.3701 11.38 13.5601L6.77003 18.93C6.19003 19.62 5.87003 20.4899 5.86003 21.3899C5.86003 22.4099 5.03003 23.24 4.01003 23.24H2.30003C2.96003 19.01 4.70004 15.0199 7.34004 11.6599H7.35003ZM4.87004 38.72C6.64004 34.74 6.76003 34.47 6.76003 34.47C7.13003 33.69 7.86003 33.13 8.71003 32.99C9.56003 32.82 10.44 33.0699 11.07 33.6699C11.64 34.2799 12.34 34.7501 13.13 35.0401L17.71 36.5701C19.29 37.0901 20.35 38.57 20.35 40.23V43.7C20.35 44.46 19.97 45.1799 19.34 45.5999C18.16 46.3799 17.45 47.6999 17.46 49.1099V50.27C12.05 48 7.61003 43.92 4.88003 38.73L4.87004 38.72ZM19.38 50.97V49.0999C19.38 48.3399 19.76 47.62 20.39 47.2C21.57 46.42 22.28 45.1 22.27 43.69V40.22C22.27 37.73 20.68 35.52 18.31 34.73L13.73 33.2C13.23 33 12.79 32.6901 12.43 32.3001C11.35 31.2501 9.83003 30.7899 8.35003 31.0799C6.87003 31.3399 5.61004 32.32 4.98004 33.69L3.78004 36.3899C2.60004 33.4399 1.99003 30.2799 1.99003 27.0999C1.99003 26.4499 2.02003 25.8099 2.07003 25.1699H4.00002C6.09002 25.1699 7.78004 23.4699 7.78004 21.3899C7.78004 20.9499 7.94003 20.52 8.22003 20.18L12.83 14.8101C13.93 13.4901 13.75 11.54 12.43 10.44C11.88 9.98997 11.2 9.73 10.49 9.72H9.00002C10.63 8.02 12.5 6.55991 14.54 5.37991V5.82986C14.59 7.46986 15.96 8.74997 17.6 8.68997C17.94 8.67997 18.27 8.61001 18.58 8.49002L21.48 7.24002C22.54 6.78001 23.22 5.72986 23.23 4.57986V2.29006C26.21 1.83006 29.26 1.91004 32.21 2.52004C29.82 6.51004 28.96 7.94004 28.66 8.52004L28.63 8.50002C27.9 9.71002 27.88 11.22 28.58 12.45C29.31 13.74 30.68 14.5301 32.16 14.5401H38.68C39.24 14.5701 39.67 15.0399 39.64 15.5899C39.56 16.1099 39.1 16.48 38.58 16.46H33.17C28.93 16.41 25.39 19.71 25.16 23.95C25.04 27.76 27.72 31.08 31.47 31.77C26.09 37.27 25.61 45.89 30.34 51.96C29.26 52.1 28.18 52.17 27.09 52.18C24.47 52.18 21.86 51.77 19.37 50.96L19.38 50.97ZM42.55 56.0601C35.09 56.0601 29.04 50.0101 29.04 42.5501C29.04 35.0901 35.09 29.0401 42.55 29.0401C50.01 29.0401 56.06 35.0901 56.06 42.5501C56.06 50.0101 50.01 56.0501 42.55 56.0601Z" fill="url(#paint0_linear_239_382)"/>
<path d="M48.24 39.6499H44.73L46.18 33.3999C46.43 32.3299 45.76 31.26 44.69 31.01C43.9 30.83 43.08 31.14 42.62 31.8L35.21 42.25C34.57 43.16 34.78 44.42 35.69 45.06C36.03 45.3 36.44 45.4299 36.86 45.4299H40.38L38.93 51.6799C38.71 52.5999 39.18 53.5599 40.04 53.9399C40.3 54.0599 40.58 54.1198 40.87 54.1198C41.51 54.1198 42.12 53.8 42.48 53.28L49.89 42.8298C50.53 41.9198 50.32 40.66 49.41 40.02C49.07 39.78 48.66 39.6499 48.24 39.6499ZM40.88 52.1999L40.8 52.1198L42.53 44.6899C42.65 44.1699 42.32 43.65 41.8 43.53C41.73 43.51 41.66 43.51 41.58 43.51H36.85L36.78 43.3698L44.22 32.8898L44.3 32.9699L42.58 40.3999C42.46 40.9199 42.79 41.44 43.31 41.56C43.38 41.58 43.45 41.5798 43.52 41.5798H48.25L48.32 41.7199L40.89 52.1999H40.88Z" fill="url(#paint1_linear_239_382)"/>
<defs>
<linearGradient id="paint0_linear_239_382" x1="2.47577e-05" y1="29" x2="58" y2="29" gradientUnits="userSpaceOnUse">
<stop stop-color="#6FA8FF"/>
<stop offset="1" stop-color="#C77CFF"/>
</linearGradient>
<linearGradient id="paint1_linear_239_382" x1="34.83" y1="42.5399" x2="50.27" y2="42.5399" gradientUnits="userSpaceOnUse">
<stop stop-color="#6FA8FF"/>
<stop offset="1" stop-color="#C77CFF"/>
</linearGradient>
</defs>
</svg>