<svg width="60" height="59" viewBox="0 0 60 59" fill="none" xmlns="http://www.w3.org/2000/svg">
<path d="M58.92 38.7539C57.39 36.8839 54.72 36.4138 52.64 37.6638L41.21 44.4739C40.99 43.3639 40.23 42.4339 39.18 42.0039L26.83 36.3838C25.1 35.6038 23.11 35.6539 21.43 36.5339C19.46 37.4439 17.36 38.0638 15.22 38.4038C13.75 38.5138 12.27 38.5539 10.8 38.5139C10.92 36.7339 9.57001 35.184 7.79001 35.064C7.72001 35.064 7.65 35.064 7.59 35.064H3.22C1.45 35.064 0.01 36.5039 0 38.2839V53.3638C0 55.1338 1.44 56.5737 3.22 56.5837H7.59C9.36 56.5837 10.8 55.1438 10.81 53.3638V52.0139C12.49 52.3439 35.08 59.3239 36.13 58.7939C38.3 58.7939 40.41 58.1238 42.18 56.8738L57.94 45.8638C60.15 44.2938 60.67 41.2239 59.1 39.0139C59.04 38.9339 58.98 38.8439 58.91 38.7639L58.92 38.7539ZM8.66 53.3538C8.66 53.9438 8.18 54.4238 7.59 54.4238H3.22C2.63 54.4238 2.15001 53.9438 2.15001 53.3538V38.2739C2.15001 37.6839 2.63 37.2039 3.22 37.2039H7.59C8.18 37.2039 8.66 37.6839 8.66 38.2739V53.3538ZM56.71 44.0938L40.95 55.1038C38.87 56.5638 36.24 57.014 33.79 56.304L10.8 49.7639V40.6438C12.4 40.7038 14 40.6539 15.59 40.5039C17.95 40.1339 20.24 39.4438 22.41 38.4338C23.51 37.8638 24.81 37.8237 25.94 38.3337L38.28 43.9539C39.04 44.3139 39.37 45.2139 39.02 45.9839C38.73 46.6039 38.06 46.9637 37.38 46.8438L26.1 44.7339C25.52 44.6239 24.96 45.0138 24.85 45.5938C24.74 46.1737 25.12 46.7338 25.71 46.8438L37.01 48.9539C37.23 48.9939 37.45 49.0139 37.68 49.0139C38.97 49.0139 40.16 48.3239 40.82 47.2039L53.74 39.5039C55.05 38.7439 56.72 39.1939 57.48 40.5039C58.18 41.7239 57.85 43.2738 56.71 44.0938Z" fill="url(#paint0_linear_239_341)"/>
<path d="M37.24 33.7539C46.58 33.7439 54.15 26.1737 54.16 16.8337C53.23 -5.61625 21.24 -5.60625 20.32 16.8337C20.33 26.1737 27.9 33.7439 37.24 33.7539ZM37.24 2.05397C45.4 2.05397 52.01 8.67375 52.02 16.8337C51.21 36.4338 23.27 36.4338 22.47 16.8337C22.47 8.67375 29.09 2.06397 37.25 2.05397H37.24Z" fill="url(#paint1_linear_239_341)"/>
<path d="M37.23 23.6838C35.63 23.6838 34.34 22.3839 34.34 20.7939C34.33 20.2039 33.84 19.7338 33.25 19.7438C32.67 19.7538 32.21 20.2239 32.2 20.7939C32.2 23.1539 33.85 25.2038 36.16 25.7038V28.3239C36.16 28.9139 36.64 29.3937 37.23 29.3937C37.82 29.3937 38.3 28.9139 38.3 28.3239V25.7038C41.01 25.0838 42.71 22.3837 42.09 19.6737C41.57 17.3937 39.56 15.7738 37.22 15.7538C35.62 15.7538 34.33 14.4537 34.33 12.8537C34.33 11.2537 35.63 9.96378 37.23 9.96378C38.83 9.96378 40.12 11.2637 40.12 12.8537C40.12 13.4437 40.6 13.9237 41.19 13.9237C41.78 13.9237 42.26 13.4437 42.26 12.8537C42.26 10.4937 40.61 8.44376 38.3 7.94376V5.32389C38.29 4.73389 37.8 4.26384 37.21 4.27384C36.63 4.28384 36.17 4.75389 36.16 5.32389V7.94376C33.44 8.53376 31.72 11.2137 32.31 13.9237C32.81 16.2437 34.87 17.8937 37.24 17.8837C38.84 17.9037 40.12 19.2139 40.1 20.8139C40.08 22.3839 38.81 23.6537 37.23 23.6737V23.6838Z" fill="url(#paint2_linear_239_341)"/>
<defs>
<linearGradient id="paint0_linear_239_341" x1="0.01" y1="46.934" x2="60.01" y2="46.934" gradientUnits="userSpaceOnUse">
<stop stop-color="#6FA8FF"/>
<stop offset="1" stop-color="#C77CFF"/>
</linearGradient>
<linearGradient id="paint1_linear_239_341" x1="20.31" y1="16.8738" x2="54.16" y2="16.8738" gradientUnits="userSpaceOnUse">
<stop stop-color="#6FA8FF"/>
<stop offset="1" stop-color="#C77CFF"/>
</linearGradient>
<linearGradient id="paint2_linear_239_341" x1="32.2" y1="16.8338" x2="42.27" y2="16.8338" gradientUnits="userSpaceOnUse">
<stop stop-color="#6FA8FF"/>
<stop offset="1" stop-color="#C77CFF"/>
</linearGradient>
</defs>
</svg>