<svg width="50" height="58" viewBox="0 0 50 58" fill="none" xmlns="http://www.w3.org/2000/svg">
<path d="M48.66 5.88482C48.51 5.90482 33.09 7.215 25.76 0.315C25.31 -0.105 24.61 -0.105 24.17 0.315C16.84 7.215 1.43002 5.90482 1.27002 5.88482C0.95002 5.85482 0.620005 5.96487 0.380005 6.18487C0.140005 6.40487 0 6.71498 0 7.04498V17.795C0 53.725 24.53 57.9549 24.78 57.9849C24.86 57.9949 24.92 57.9949 24.98 57.9949C25.04 57.9949 25.1 57.9949 25.15 57.9849C25.39 57.9549 49.93 53.715 49.93 17.795V7.04498C49.93 6.72498 49.79 6.40487 49.55 6.18487C49.32 5.96487 48.99 5.84482 48.67 5.88482H48.66ZM47.61 17.795C47.61 50.415 27.3 55.2249 24.98 55.6649C22.87 55.2349 2.34 50.175 2.34 17.795V8.28497C6.23 8.45497 17.97 8.4849 24.98 2.7149C31.99 8.4949 43.74 8.46497 47.61 8.28497V17.795Z" fill="url(#paint0_linear_239_385)"/>
<path d="M36.22 24.9048H29.07V17.7549C29.07 17.1149 28.55 16.5947 27.91 16.5947H22.04C21.4 16.5947 20.88 17.1149 20.88 17.7549V24.9048H13.73C13.09 24.9048 12.57 25.4249 12.57 26.0649V31.9348C12.57 32.5748 13.09 33.0947 13.73 33.0947H20.88V40.2449C20.88 40.8849 21.4 41.4048 22.04 41.4048H27.91C28.55 41.4048 29.07 40.8849 29.07 40.2449V33.0947H36.22C36.86 33.0947 37.38 32.5748 37.38 31.9348V26.0649C37.38 25.4149 36.86 24.9048 36.22 24.9048ZM35.06 30.7749H27.91C27.27 30.7749 26.75 31.2948 26.75 31.9348V39.0847H23.2V31.9348C23.2 31.2948 22.68 30.7749 22.04 30.7749H14.89V27.2249H22.04C22.68 27.2249 23.2 26.7049 23.2 26.0649V18.9148H26.75V26.0649C26.75 26.7049 27.27 27.2249 27.91 27.2249H35.06V30.7749Z" fill="url(#paint1_linear_239_385)"/>
<defs>
<linearGradient id="paint0_linear_239_385" x1="0" y1="29.005" x2="49.93" y2="29.005" gradientUnits="userSpaceOnUse">
<stop stop-color="#6FA8FF"/>
<stop offset="1" stop-color="#C77CFF"/>
</linearGradient>
<linearGradient id="paint1_linear_239_385" x1="12.57" y1="29.0048" x2="37.38" y2="29.0048" gradientUnits="userSpaceOnUse">
<stop stop-color="#6FA8FF"/>
<stop offset="1" stop-color="#C77CFF"/>
</linearGradient>
</defs>
</svg>