<svg width="57" height="51" viewBox="0 0 57 51" fill="none" xmlns="http://www.w3.org/2000/svg">
<path d="M55.7863 48.3202L51.5363 29.6002C51.3663 28.8402 50.6863 28.3002 49.9063 28.3002H45.9564V21.2601C47.4264 21.2201 48.7763 20.4701 49.5963 19.2501C50.2663 18.2401 50.5064 17.0402 50.2764 15.8502C50.0364 14.6602 49.3563 13.6401 48.3463 12.9701L30.6164 1.14C29.0864 0.12 27.1164 0.12 25.5864 1.14L7.85635 12.9801C5.77635 14.3701 5.21635 17.1901 6.60635 19.2601C7.45635 20.5301 8.82636 21.2301 10.2464 21.2701V28.3102H6.29635C5.51635 28.3102 4.83635 28.85 4.66635 29.61L0.416345 48.3302C0.306345 48.8302 0.416353 49.3501 0.736353 49.7401C1.05635 50.1401 1.53635 50.37 2.04635 50.37H54.1663C54.6763 50.37 55.1563 50.1401 55.4763 49.7401C55.7963 49.3401 55.9163 48.8202 55.7963 48.3302L55.7863 48.3202ZM9.37637 17.39C9.01637 16.85 9.15638 16.1101 9.70638 15.7401L27.4364 3.90001C27.8364 3.63001 28.3564 3.63001 28.7564 3.90001L46.4864 15.7401C47.0264 16.1001 47.1764 16.84 46.8164 17.39C46.5964 17.72 46.2264 17.92 45.8264 17.92C45.5964 17.92 45.3663 17.8501 45.1663 17.7201L29.0264 6.94005C28.7464 6.75005 28.4263 6.66002 28.0963 6.66002C27.7663 6.66002 27.4463 6.75005 27.1663 6.94005L11.0264 17.7201C10.4764 18.0801 9.74637 17.94 9.37637 17.39ZM28.0963 20.2301C24.1363 20.2301 20.9063 23.46 20.9063 27.42V36.44H13.5864V20.0401L28.0963 10.3502L42.6063 20.0401V36.44H35.2863V27.42C35.2863 23.46 32.0563 20.2301 28.0963 20.2301ZM31.9364 27.42V36.44H24.2464V27.42C24.2464 25.3 25.9763 23.5702 28.0963 23.5702C30.2163 23.5702 31.9464 25.3 31.9464 27.42H31.9364ZM4.12637 47.0201L7.61636 31.65H10.2364V38.11C10.2364 39.03 10.9863 39.7801 11.9063 39.7801H44.2764C45.1964 39.7801 45.9464 39.03 45.9464 38.11V31.65H48.5664L52.0564 47.0201H4.12637Z" fill="url(#paint0_linear_239_364)" stroke="white" stroke-width="0.75" stroke-miterlimit="10"/>
<defs>
<linearGradient id="paint0_linear_239_364" x1="0.356347" y1="25.37" x2="55.8263" y2="25.37" gradientUnits="userSpaceOnUse">
<stop stop-color="#6FA8FF"/>
<stop offset="1" stop-color="#C77CFF"/>
</linearGradient>
</defs>
</svg>