<svg width="61" height="59" viewBox="0 0 61 59" fill="none" xmlns="http://www.w3.org/2000/svg">
<path d="M30.255 44.865C26.545 44.865 23.535 41.845 23.535 38.145C23.535 34.445 26.555 31.425 30.255 31.425C33.955 31.425 36.975 34.445 36.975 38.145C36.975 41.845 33.955 44.865 30.255 44.865ZM30.255 33.335C27.605 33.335 25.455 35.485 25.455 38.135C25.455 40.785 27.605 42.9351 30.255 42.9351C32.905 42.9351 35.055 40.785 35.055 38.135C35.055 35.485 32.905 33.335 30.255 33.335Z" fill="url(#paint0_linear_239_415)" stroke="url(#paint1_linear_239_415)" stroke-width="0.75" stroke-miterlimit="10"/>
<path d="M40.825 58.375H19.695C19.165 58.375 18.735 57.945 18.735 57.415V54.425C18.735 49.665 22.615 45.7749 27.385 45.7749H33.145C37.905 45.7749 41.795 49.655 41.795 54.425V57.415C41.795 57.945 41.365 58.375 40.835 58.375H40.825ZM20.645 56.4548H39.855V54.425C39.855 50.715 36.835 47.7048 33.135 47.7048H27.375C23.665 47.7048 20.655 50.725 20.655 54.425V56.4548H20.645Z" fill="url(#paint2_linear_239_415)" stroke="url(#paint3_linear_239_415)" stroke-width="0.75" stroke-miterlimit="10"/>
<path d="M11.895 40.925C8.18502 40.925 5.17502 37.9048 5.17502 34.2048C5.17502 30.5048 8.19502 27.4849 11.895 27.4849C15.595 27.4849 18.615 30.5048 18.615 34.2048C18.615 37.9048 15.595 40.925 11.895 40.925ZM11.895 29.395C9.24502 29.395 7.095 31.5451 7.095 34.1951C7.095 36.8451 9.24502 38.9949 11.895 38.9949C14.545 38.9949 16.695 36.8451 16.695 34.1951C16.695 31.5451 14.545 29.395 11.895 29.395Z" fill="url(#paint4_linear_239_415)" stroke="url(#paint5_linear_239_415)" stroke-width="0.75" stroke-miterlimit="10"/>
<path d="M16.655 54.4451H1.33502C0.805022 54.4451 0.375 54.0149 0.375 53.4849V50.4949C0.375 45.7349 4.25499 41.845 9.02499 41.845H14.785C17.475 41.845 19.975 43.0651 21.625 45.1951C21.955 45.6151 21.875 46.2149 21.455 46.5349C21.035 46.8549 20.435 46.785 20.115 46.365C18.825 44.705 16.885 43.7549 14.795 43.7549H9.035C5.325 43.7549 2.315 46.7749 2.315 50.4749V52.5049H16.675C17.205 52.5049 17.635 52.9348 17.635 53.4648C17.635 53.9948 17.205 54.425 16.675 54.425L16.655 54.4451Z" fill="url(#paint6_linear_239_415)" stroke="url(#paint7_linear_239_415)" stroke-width="0.75" stroke-miterlimit="10"/>
<path d="M48.395 40.925C44.685 40.925 41.675 37.9048 41.675 34.2048C41.675 30.5048 44.695 27.4849 48.395 27.4849C52.095 27.4849 55.115 30.5048 55.115 34.2048C55.115 37.9048 52.095 40.925 48.395 40.925ZM48.395 29.395C45.745 29.395 43.595 31.5451 43.595 34.1951C43.595 36.8451 45.745 38.9949 48.395 38.9949C51.045 38.9949 53.195 36.8451 53.195 34.1951C53.195 31.5451 51.045 29.395 48.395 29.395Z" fill="url(#paint8_linear_239_415)" stroke="url(#paint9_linear_239_415)" stroke-width="0.75" stroke-miterlimit="10"/>
<path d="M58.965 54.4451H43.645C43.115 54.4451 42.685 54.0149 42.685 53.4849C42.685 52.9549 43.115 52.5249 43.645 52.5249H58.005V50.4949C58.005 46.7849 54.985 43.7749 51.285 43.7749H45.525C43.435 43.7749 41.495 44.725 40.205 46.385C39.875 46.805 39.275 46.8849 38.865 46.5549C38.445 46.2249 38.365 45.6248 38.695 45.2148C40.345 43.0848 42.835 41.865 45.535 41.865H51.295C56.055 41.865 59.945 45.7449 59.945 50.5149V53.5049C59.945 54.0349 59.515 54.4648 58.985 54.4648L58.965 54.4451Z" fill="url(#paint10_linear_239_415)" stroke="url(#paint11_linear_239_415)" stroke-width="0.75" stroke-miterlimit="10"/>
<path d="M45.205 26.1851C44.775 26.1851 44.375 25.8948 44.275 25.4548C44.155 24.9348 44.455 24.4149 44.975 24.2949L49.045 23.2749V19.105L44.975 18.085C44.635 17.995 44.365 17.735 44.285 17.405C43.945 16.165 43.455 14.975 42.825 13.875C42.655 13.575 42.655 13.205 42.825 12.895L44.985 9.30493L42.035 6.35498L38.445 8.51489C38.145 8.69489 37.775 8.69489 37.465 8.51489C36.365 7.88489 35.185 7.39493 33.935 7.05493C33.595 6.96493 33.335 6.69499 33.255 6.36499L32.235 2.29492H28.065L27.045 6.36499C26.955 6.70499 26.695 6.97493 26.365 7.05493C25.125 7.39493 23.935 7.88489 22.835 8.51489C22.535 8.68489 22.165 8.68489 21.855 8.51489L18.265 6.35498L15.315 9.30493L17.475 12.895C17.655 13.195 17.655 13.565 17.475 13.875C16.845 14.975 16.355 16.165 16.015 17.405C15.925 17.745 15.655 18.005 15.325 18.085L11.255 19.105V23.2749L15.325 24.2949C15.845 24.4149 16.155 24.9448 16.025 25.4548C15.905 25.9748 15.375 26.285 14.865 26.155L10.065 24.9548C9.645 24.8448 9.33502 24.4649 9.33502 24.0249V18.355C9.33502 17.915 9.635 17.525 10.065 17.425L14.325 16.355C14.635 15.335 15.045 14.345 15.535 13.415L13.275 9.64502C13.045 9.27502 13.115 8.78485 13.415 8.47485L17.435 4.45483C17.745 4.14483 18.235 4.08494 18.605 4.31494L22.375 6.57495C23.305 6.07495 24.295 5.67499 25.315 5.36499L26.385 1.10498C26.495 0.68498 26.875 0.375 27.315 0.375H32.985C33.425 0.375 33.815 0.67498 33.915 1.10498L34.985 5.36499C36.005 5.67499 36.995 6.08495 37.925 6.57495L41.695 4.31494C42.065 4.08494 42.555 4.15483 42.865 4.45483L46.885 8.47485C47.195 8.78485 47.255 9.27502 47.025 9.64502L44.765 13.415C45.265 14.345 45.665 15.335 45.975 16.355L50.235 17.425C50.655 17.535 50.965 17.915 50.965 18.355V24.0249C50.965 24.4649 50.665 24.8548 50.235 24.9548L45.435 26.155C45.355 26.175 45.285 26.1851 45.205 26.1851Z" fill="url(#paint12_linear_239_415)" stroke="url(#paint13_linear_239_415)" stroke-width="0.75" stroke-miterlimit="10"/>
<path d="M38.175 26.1851C38.035 26.1851 37.885 26.155 37.745 26.075C37.275 25.835 37.085 25.2549 37.325 24.7849C37.895 23.6649 38.175 22.4551 38.175 21.1851C38.175 16.7551 34.575 13.155 30.145 13.155C25.715 13.155 22.115 16.7551 22.115 21.1851C22.115 22.4551 22.405 23.6649 22.965 24.7849C23.205 25.2549 23.015 25.835 22.545 26.075C22.075 26.315 21.495 26.125 21.255 25.655C20.555 24.265 20.195 22.7551 20.195 21.1851C20.195 15.7051 24.665 11.2349 30.145 11.2349C35.625 11.2349 40.095 15.7051 40.095 21.1851C40.095 22.7651 39.735 24.255 39.035 25.655C38.865 25.995 38.525 26.1851 38.185 26.1851H38.165H38.175Z" fill="url(#paint14_linear_239_415)" stroke="url(#paint15_linear_239_415)" stroke-width="0.75" stroke-miterlimit="10"/>
<defs>
<linearGradient id="paint0_linear_239_415" x1="23.525" y1="38.135" x2="36.975" y2="38.135" gradientUnits="userSpaceOnUse">
<stop stop-color="#6FA8FF"/>
<stop offset="1" stop-color="#C77CFF"/>
</linearGradient>
<linearGradient id="paint1_linear_239_415" x1="23.155" y1="38.135" x2="37.355" y2="38.135" gradientUnits="userSpaceOnUse">
<stop stop-color="#6FA8FF"/>
<stop offset="1" stop-color="#C77CFF"/>
</linearGradient>
<linearGradient id="paint2_linear_239_415" x1="18.725" y1="52.085" x2="41.785" y2="52.085" gradientUnits="userSpaceOnUse">
<stop stop-color="#6FA8FF"/>
<stop offset="1" stop-color="#C77CFF"/>
</linearGradient>
<linearGradient id="paint3_linear_239_415" x1="18.355" y1="52.085" x2="42.155" y2="52.085" gradientUnits="userSpaceOnUse">
<stop stop-color="#6FA8FF"/>
<stop offset="1" stop-color="#C77CFF"/>
</linearGradient>
<linearGradient id="paint4_linear_239_415" x1="5.17502" y1="34.195" x2="18.625" y2="34.195" gradientUnits="userSpaceOnUse">
<stop stop-color="#6FA8FF"/>
<stop offset="1" stop-color="#C77CFF"/>
</linearGradient>
<linearGradient id="paint5_linear_239_415" x1="4.79502" y1="34.195" x2="18.995" y2="34.195" gradientUnits="userSpaceOnUse">
<stop stop-color="#6FA8FF"/>
<stop offset="1" stop-color="#C77CFF"/>
</linearGradient>
<linearGradient id="paint6_linear_239_415" x1="0.375" y1="48.155" x2="21.825" y2="48.155" gradientUnits="userSpaceOnUse">
<stop stop-color="#6FA8FF"/>
<stop offset="1" stop-color="#C77CFF"/>
</linearGradient>
<linearGradient id="paint7_linear_239_415" x1="-0.00500011" y1="48.155" x2="22.195" y2="48.155" gradientUnits="userSpaceOnUse">
<stop stop-color="#6FA8FF"/>
<stop offset="1" stop-color="#C77CFF"/>
</linearGradient>
<linearGradient id="paint8_linear_239_415" x1="41.675" y1="34.195" x2="55.125" y2="34.195" gradientUnits="userSpaceOnUse">
<stop stop-color="#6FA8FF"/>
<stop offset="1" stop-color="#C77CFF"/>
</linearGradient>
<linearGradient id="paint9_linear_239_415" x1="41.305" y1="34.195" x2="55.495" y2="34.195" gradientUnits="userSpaceOnUse">
<stop stop-color="#6FA8FF"/>
<stop offset="1" stop-color="#C77CFF"/>
</linearGradient>
<linearGradient id="paint10_linear_239_415" x1="38.475" y1="48.1649" x2="59.925" y2="48.1649" gradientUnits="userSpaceOnUse">
<stop stop-color="#6FA8FF"/>
<stop offset="1" stop-color="#C77CFF"/>
</linearGradient>
<linearGradient id="paint11_linear_239_415" x1="38.105" y1="48.1649" x2="60.305" y2="48.1649" gradientUnits="userSpaceOnUse">
<stop stop-color="#6FA8FF"/>
<stop offset="1" stop-color="#C77CFF"/>
</linearGradient>
<linearGradient id="paint12_linear_239_415" x1="9.33502" y1="13.285" x2="50.965" y2="13.285" gradientUnits="userSpaceOnUse">
<stop stop-color="#6FA8FF"/>
<stop offset="1" stop-color="#C77CFF"/>
</linearGradient>
<linearGradient id="paint13_linear_239_415" x1="8.95502" y1="13.285" x2="51.335" y2="13.285" gradientUnits="userSpaceOnUse">
<stop stop-color="#6FA8FF"/>
<stop offset="1" stop-color="#C77CFF"/>
</linearGradient>
<linearGradient id="paint14_linear_239_415" x1="20.205" y1="18.715" x2="40.105" y2="18.715" gradientUnits="userSpaceOnUse">
<stop stop-color="#6FA8FF"/>
<stop offset="1" stop-color="#C77CFF"/>
</linearGradient>
<linearGradient id="paint15_linear_239_415" x1="19.835" y1="18.715" x2="40.485" y2="18.715" gradientUnits="userSpaceOnUse">
<stop stop-color="#6FA8FF"/>
<stop offset="1" stop-color="#C77CFF"/>
</linearGradient>
</defs>
</svg>