<svg width="59" height="59" viewBox="0 0 59 59" fill="none" xmlns="http://www.w3.org/2000/svg">
<path d="M23.38 54.26C24.4128 54.26 25.25 53.4229 25.25 52.3901C25.25 51.3574 24.4128 50.52 23.38 50.52C22.3472 50.52 21.51 51.3574 21.51 52.3901C21.51 53.4229 22.3472 54.26 23.38 54.26Z" fill="url(#paint0_linear_239_357)"/>
<path d="M26.19 14.97H14.96V16.8401H26.19V14.97Z" fill="url(#paint1_linear_239_357)"/>
<path d="M33.67 18.71H13.09V20.5801H33.67V18.71Z" fill="url(#paint2_linear_239_357)"/>
<path d="M33.67 22.45H13.09V24.3201H33.67V22.45Z" fill="url(#paint3_linear_239_357)"/>
<path d="M33.67 39.29H26.19V41.1602H33.67V39.29Z" fill="url(#paint4_linear_239_357)"/>
<path d="M58 10.1301C58 8.15013 56.4 6.55005 54.42 6.55005C53.47 6.55005 52.56 6.9301 51.89 7.6001L46.78 12.71V4.68018C46.78 2.10018 44.68 0.01 42.1 0H4.67999C2.09999 0 0.01 2.10018 0 4.68018V53.3301C0 55.9101 2.09999 58 4.67999 58.01H42.1C44.68 58.01 46.77 55.9101 46.78 53.3301V22.8501L56.96 12.6702C57.63 12.0002 58.01 11.0901 58.01 10.1401L58 10.1301ZM41.16 18.3201L37.42 22.0601V15.9001C37.42 15.6501 37.32 15.41 37.15 15.24L29.67 7.76001C29.49 7.58001 29.26 7.48999 29.01 7.48999H10.3C9.77999 7.48999 9.35999 7.91018 9.35999 8.43018V43.98C9.35999 44.5 9.77999 44.9202 10.3 44.9202H36.49C37.01 44.9202 37.43 44.5 37.43 43.98V32.21L41.17 28.47V46.79H5.62V5.63013H41.17V18.3401L41.16 18.3201ZM31.18 31.5801L32.97 33.3701L29.84 34.72L31.18 31.5901V31.5801ZM33.29 26.2H13.1V28.0701H31.42L30.21 29.28C30.13 29.36 30.06 29.4601 30.01 29.5701L27.2 36.1201C27 36.5901 27.22 37.1401 27.69 37.3501C27.81 37.4001 27.93 37.4302 28.06 37.4302C28.19 37.4302 28.31 37.4001 28.43 37.3501L34.98 34.54C35.09 34.49 35.19 34.4301 35.27 34.3401L35.54 34.0701V43.04H11.22V9.36011H28.06V15.9102C28.06 16.4302 28.48 16.8501 29 16.8501H35.55V23.95L33.29 26.21V26.2ZM29.93 10.6802L34.22 14.97H29.93V10.6802ZM34.61 32.3601L32.19 29.9399L45.83 16.3L48.25 18.72L34.61 32.3601ZM47.16 14.97L48.64 13.49L51.06 15.9102L49.58 17.3901L47.16 14.97ZM44.9 53.3301C44.9 54.8801 43.64 56.1401 42.09 56.1401H4.66998C3.11998 56.1401 1.85999 54.8801 1.85999 53.3301V4.68018C1.85999 3.13018 3.11998 1.87012 4.66998 1.87012H42.09C43.64 1.87012 44.9 3.13018 44.9 4.68018V14.5801L43.03 16.45V4.68018C43.03 4.16018 42.61 3.73999 42.09 3.73999H4.66998C4.14998 3.73999 3.72998 4.16018 3.72998 4.68018V47.71C3.72998 48.23 4.14998 48.6501 4.66998 48.6501H42.09C42.61 48.6501 43.03 48.23 43.03 47.71V26.5801L44.9 24.71V53.3201V53.3301ZM55.62 11.3401L52.38 14.5801L49.96 12.1602L53.2 8.92017C53.87 8.25017 54.95 8.25017 55.62 8.92017C55.94 9.24017 56.12 9.68013 56.12 10.1301C56.12 10.5801 55.94 11.0201 55.62 11.3401Z" fill="url(#paint5_linear_239_357)"/>
<defs>
<linearGradient id="paint0_linear_239_357" x1="21.51" y1="52.39" x2="25.25" y2="52.39" gradientUnits="userSpaceOnUse">
<stop stop-color="#6FA8FF"/>
<stop offset="1" stop-color="#C77CFF"/>
</linearGradient>
<linearGradient id="paint1_linear_239_357" x1="14.96" y1="15.91" x2="26.19" y2="15.91" gradientUnits="userSpaceOnUse">
<stop stop-color="#6FA8FF"/>
<stop offset="1" stop-color="#C77CFF"/>
</linearGradient>
<linearGradient id="paint2_linear_239_357" x1="13.09" y1="19.65" x2="33.67" y2="19.65" gradientUnits="userSpaceOnUse">
<stop stop-color="#6FA8FF"/>
<stop offset="1" stop-color="#C77CFF"/>
</linearGradient>
<linearGradient id="paint3_linear_239_357" x1="13.09" y1="23.39" x2="33.67" y2="23.39" gradientUnits="userSpaceOnUse">
<stop stop-color="#6FA8FF"/>
<stop offset="1" stop-color="#C77CFF"/>
</linearGradient>
<linearGradient id="paint4_linear_239_357" x1="26.19" y1="40.2301" x2="33.67" y2="40.2301" gradientUnits="userSpaceOnUse">
<stop stop-color="#6FA8FF"/>
<stop offset="1" stop-color="#C77CFF"/>
</linearGradient>
<linearGradient id="paint5_linear_239_357" x1="0" y1="29" x2="58" y2="29" gradientUnits="userSpaceOnUse">
<stop stop-color="#6FA8FF"/>
<stop offset="1" stop-color="#C77CFF"/>
</linearGradient>
</defs>
</svg>