<svg width="61" height="58" viewBox="0 0 61 58" fill="none" xmlns="http://www.w3.org/2000/svg">
<path d="M30.1 37.5999C29.81 37.5999 29.54 37.48 29.33 37.28C28.8 36.74 16.34 23.95 16.34 13.76C16.34 6.17001 22.51 0 30.1 0C37.69 0 43.86 6.17001 43.86 13.76C43.86 23.95 31.4 36.74 30.87 37.28C30.67 37.49 30.39 37.5999 30.1 37.5999ZM30.1 2.1499C23.7 2.1499 18.49 7.36001 18.49 13.76C18.49 21.7 27.4 32.01 30.1 34.96C32.8 32.02 41.71 21.7 41.71 13.76C41.71 7.36001 36.5 2.1499 30.1 2.1499Z" fill="url(#paint0_linear_239_389)"/>
<path d="M30.1 21.8899C25.49 21.8899 21.74 18.14 21.74 13.53C21.74 8.92003 25.49 5.16992 30.1 5.16992C34.71 5.16992 38.46 8.92003 38.46 13.53C38.46 18.14 34.71 21.8899 30.1 21.8899ZM30.1 7.31006C26.67 7.31006 23.89 10.1 23.89 13.52C23.89 16.94 26.68 19.73 30.1 19.73C33.52 19.73 36.3099 16.94 36.3099 13.52C36.3099 10.1 33.52 7.31006 30.1 7.31006Z" fill="url(#paint1_linear_239_389)"/>
<path d="M30.1 44.5301C22.01 44.5301 15.66 41.0101 15.66 36.5201C15.66 34.3401 17.1399 32.3199 19.8199 30.8299C20.3399 30.5399 20.99 30.7301 21.28 31.2501C21.57 31.7701 21.38 32.42 20.86 32.71C18.89 33.81 17.7999 35.1601 17.7999 36.5201C17.7999 39.3501 22.74 42.38 30.09 42.38C37.44 42.38 42.38 39.3501 42.38 36.5201C42.38 35.1601 41.2899 33.8 39.3199 32.71C38.7999 32.42 38.61 31.7701 38.9 31.2501C39.19 30.7301 39.84 30.5399 40.36 30.8299C43.05 32.3199 44.52 34.3401 44.52 36.5201C44.52 41.0101 38.18 44.5301 30.08 44.5301H30.1Z" fill="url(#paint2_linear_239_389)"/>
<path d="M6.27002 58C2.81002 58 0 55.76 0 53C0 50.24 2.81002 48 6.27002 48C9.73002 48 12.54 50.24 12.54 53C12.54 55.76 9.73002 58 6.27002 58ZM6.27002 50.1499C4.03002 50.1499 2.15002 51.46 2.15002 53C2.15002 54.54 4.04002 55.8499 6.27002 55.8499C8.50002 55.8499 10.39 54.55 10.39 53C10.39 51.45 8.50002 50.1499 6.27002 50.1499Z" fill="url(#paint3_linear_239_389)"/>
<path d="M53.9199 58C50.4599 58 47.65 55.76 47.65 53C47.65 50.24 50.4599 48 53.9199 48C57.3799 48 60.1899 50.24 60.1899 53C60.1899 55.76 57.3799 58 53.9199 58ZM53.9199 50.1499C51.6799 50.1499 49.7999 51.46 49.7999 53C49.7999 54.54 51.6899 55.8499 53.9199 55.8499C56.1499 55.8499 58.04 54.55 58.04 53C58.04 51.45 56.1499 50.1499 53.9199 50.1499Z" fill="url(#paint4_linear_239_389)"/>
<path d="M6.27002 32.8499C2.81002 32.8499 0 30.6099 0 27.8499C0 25.0899 2.81002 22.8499 6.27002 22.8499C9.73002 22.8499 12.54 25.0899 12.54 27.8499C12.54 30.6099 9.73002 32.8499 6.27002 32.8499ZM6.27002 25C4.03002 25 2.15002 26.3099 2.15002 27.8499C2.15002 29.3899 4.04002 30.7 6.27002 30.7C8.50002 30.7 10.39 29.3999 10.39 27.8499C10.39 26.2999 8.50002 25 6.27002 25Z" fill="url(#paint5_linear_239_389)"/>
<path d="M53.9199 32.8499C50.4599 32.8499 47.65 30.6099 47.65 27.8499C47.65 25.0899 50.4599 22.8499 53.9199 22.8499C57.3799 22.8499 60.1899 25.0899 60.1899 27.8499C60.1899 30.6099 57.3799 32.8499 53.9199 32.8499ZM53.9199 25C51.6799 25 49.7999 26.3099 49.7999 27.8499C49.7999 29.3899 51.6899 30.7 53.9199 30.7C56.1499 30.7 58.04 29.3999 58.04 27.8499C58.04 26.2999 56.1499 25 53.9199 25Z" fill="url(#paint6_linear_239_389)"/>
<path d="M42.18 34.6398C41.78 34.6398 41.4 34.42 41.21 34.03C40.95 33.49 41.18 32.8498 41.72 32.5998L49.1301 29.05C49.6601 28.79 50.31 29.02 50.56 29.56C50.82 30.1 50.59 30.7399 50.05 30.9899L42.6401 34.54C42.4901 34.61 42.33 34.6498 42.18 34.6498V34.6398Z" fill="url(#paint7_linear_239_389)"/>
<path d="M8.81997 50.6498C8.41997 50.6498 8.04 50.4299 7.85 50.0399C7.59 49.4999 7.82 48.8598 8.35 48.6098L23 41.5797C23.54 41.3197 24.18 41.5497 24.43 42.0797C24.68 42.6097 24.46 43.2599 23.93 43.5099L9.28005 50.5399C9.13005 50.6099 8.96997 50.6498 8.81997 50.6498Z" fill="url(#paint8_linear_239_389)"/>
<path d="M18.01 34.6398C17.85 34.6398 17.6999 34.61 17.5499 34.53L10.14 30.9799C9.59998 30.7199 9.37997 30.08 9.62997 29.55C9.87997 29.01 10.5299 28.78 11.0599 29.04L18.4699 32.5898C19.0099 32.8498 19.2299 33.4899 18.9799 34.0199C18.7999 34.4099 18.41 34.6298 18.01 34.6298V34.6398Z" fill="url(#paint9_linear_239_389)"/>
<path d="M51.37 50.6498C51.21 50.6498 51.0601 50.6199 50.9101 50.5399L36.26 43.5099C35.72 43.2499 35.5 42.6097 35.76 42.0797C36.02 41.5497 36.66 41.3197 37.19 41.5797L51.84 48.6098C52.38 48.8698 52.6 49.5099 52.34 50.0399C52.16 50.4199 51.77 50.6498 51.37 50.6498Z" fill="url(#paint10_linear_239_389)"/>
<defs>
<linearGradient id="paint0_linear_239_389" x1="16.34" y1="18.7999" x2="43.85" y2="18.7999" gradientUnits="userSpaceOnUse">
<stop stop-color="#6FA8FF"/>
<stop offset="1" stop-color="#C77CFF"/>
</linearGradient>
<linearGradient id="paint1_linear_239_389" x1="21.73" y1="13.5299" x2="38.46" y2="13.5299" gradientUnits="userSpaceOnUse">
<stop stop-color="#6FA8FF"/>
<stop offset="1" stop-color="#C77CFF"/>
</linearGradient>
<linearGradient id="paint2_linear_239_389" x1="15.66" y1="37.62" x2="44.53" y2="37.62" gradientUnits="userSpaceOnUse">
<stop stop-color="#6FA8FF"/>
<stop offset="1" stop-color="#C77CFF"/>
</linearGradient>
<linearGradient id="paint3_linear_239_389" x1="0" y1="53" x2="12.55" y2="53" gradientUnits="userSpaceOnUse">
<stop stop-color="#6FA8FF"/>
<stop offset="1" stop-color="#C77CFF"/>
</linearGradient>
<linearGradient id="paint4_linear_239_389" x1="47.65" y1="53" x2="60.1899" y2="53" gradientUnits="userSpaceOnUse">
<stop stop-color="#6FA8FF"/>
<stop offset="1" stop-color="#C77CFF"/>
</linearGradient>
<linearGradient id="paint5_linear_239_389" x1="0" y1="27.8499" x2="12.55" y2="27.8499" gradientUnits="userSpaceOnUse">
<stop stop-color="#6FA8FF"/>
<stop offset="1" stop-color="#C77CFF"/>
</linearGradient>
<linearGradient id="paint6_linear_239_389" x1="47.65" y1="27.8499" x2="60.1899" y2="27.8499" gradientUnits="userSpaceOnUse">
<stop stop-color="#6FA8FF"/>
<stop offset="1" stop-color="#C77CFF"/>
</linearGradient>
<linearGradient id="paint7_linear_239_389" x1="41.1" y1="31.7899" x2="50.66" y2="31.7899" gradientUnits="userSpaceOnUse">
<stop stop-color="#6FA8FF"/>
<stop offset="1" stop-color="#C77CFF"/>
</linearGradient>
<linearGradient id="paint8_linear_239_389" x1="7.75" y1="46.0598" x2="24.55" y2="46.0598" gradientUnits="userSpaceOnUse">
<stop stop-color="#6FA8FF"/>
<stop offset="1" stop-color="#C77CFF"/>
</linearGradient>
<linearGradient id="paint9_linear_239_389" x1="9.52997" y1="31.7899" x2="19.0899" y2="31.7899" gradientUnits="userSpaceOnUse">
<stop stop-color="#6FA8FF"/>
<stop offset="1" stop-color="#C77CFF"/>
</linearGradient>
<linearGradient id="paint10_linear_239_389" x1="35.64" y1="46.0598" x2="52.44" y2="46.0598" gradientUnits="userSpaceOnUse">
<stop stop-color="#6FA8FF"/>
<stop offset="1" stop-color="#C77CFF"/>
</linearGradient>
</defs>
</svg>