<svg width="76" height="58" viewBox="0 0 76 58" fill="none" xmlns="http://www.w3.org/2000/svg">
<path d="M58.9304 29.4299C57.6304 29.0499 56.2704 29.1901 55.0904 29.8301L45.3504 35.1299C44.7304 33.9699 43.7104 33.12 42.4604 32.72C38.2104 31.35 33.9504 29.9799 29.7004 28.6099C25.9204 27.3899 22.2504 27.7399 18.7704 29.6299L9.97039 34.4199L9.12036 32.95C8.81036 32.42 8.32039 32.0399 7.72039 31.8799C7.12039 31.7199 6.50039 31.7999 5.97039 32.1099L1.15039 34.8899C0.620387 35.1999 0.240379 35.69 0.0803794 36.29C-0.0796206 36.89 0.000359863 37.51 0.31036 38.04L11.1404 56.8398C11.4504 57.3798 11.9404 57.7599 12.5404 57.9199C12.7404 57.9699 12.9404 58 13.1504 58C13.5504 58 13.9404 57.8999 14.3004 57.6899L19.1204 54.9199C19.6504 54.6099 20.0304 54.12 20.1904 53.52C20.3504 52.92 20.2704 52.3 19.9604 51.77L19.1604 50.3899L19.3603 50.28C21.3103 49.22 23.3604 49.03 25.4704 49.71L30.1304 51.21C31.2404 51.57 32.3304 51.75 33.4104 51.75C35.0904 51.75 36.7504 51.31 38.3404 50.45L59.9203 38.71C62.3603 37.38 63.2704 34.3099 61.9404 31.8699C61.3004 30.6899 60.2304 29.83 58.9304 29.45V29.4299ZM13.2704 55.2L2.81036 37.04L6.98034 34.6399L16.1304 50.52C16.1304 50.52 16.1304 50.52 16.1304 50.53C16.1304 50.54 16.1404 50.5501 16.1504 50.5601L17.4404 52.8101L13.2704 55.21V55.2ZM58.6304 36.3499L37.0604 48.0898C35.1104 49.1498 33.0604 49.3399 30.9504 48.6599L26.2904 47.1599C23.4604 46.2399 20.7004 46.4999 18.0804 47.9299L17.8204 48.0701L11.3004 36.75L20.0404 31.99C22.8504 30.46 25.8204 30.1799 28.8704 31.1599C33.1204 32.5299 37.3804 33.9 41.6304 35.27C42.2304 35.46 42.7104 35.8799 43.0004 36.4399C43.2904 37.0099 43.3404 37.65 43.1504 38.25C42.9604 38.85 42.5404 39.3399 41.9704 39.6299C41.4004 39.9199 40.7603 39.97 40.1703 39.78C36.5603 38.62 32.9504 37.4501 29.3404 36.3C28.6404 36.07 27.8804 36.4599 27.6604 37.1699C27.4404 37.8799 27.8204 38.6299 28.5304 38.8499C32.1404 40.0099 35.7503 41.1701 39.3603 42.3301C39.8703 42.4901 40.3904 42.5701 40.9104 42.5701C41.7004 42.5701 42.4904 42.38 43.2104 42.01C44.4104 41.39 45.3004 40.3501 45.7104 39.0701C45.8404 38.6701 45.9204 38.2599 45.9404 37.8499L56.3603 32.1799C56.9103 31.8799 57.5504 31.81 58.1604 31.99C58.7704 32.17 59.2704 32.5699 59.5704 33.1299C60.2004 34.2799 59.7704 35.7199 58.6204 36.3499H58.6304ZM69.9903 12.5999C71.0103 11.2799 71.6204 9.62008 71.6204 7.83008C71.6204 3.52008 68.1104 0 63.7904 0C59.4704 0 55.9604 3.51008 55.9604 7.83008C55.9604 9.63008 56.5704 11.2799 57.5904 12.5999C56.3704 13.2299 55.3004 14.13 54.4504 15.23C54.0004 14.89 53.5204 14.5801 53.0104 14.3201C54.0304 13.0001 54.6404 11.34 54.6404 9.55005C54.6404 5.24005 51.1304 1.71997 46.8104 1.71997C42.4904 1.71997 38.9803 5.23005 38.9803 9.55005C38.9803 11.34 39.5903 13.0001 40.6103 14.3201C40.1003 14.5801 39.6203 14.89 39.1703 15.23C38.3303 14.13 37.2604 13.2299 36.0304 12.5999C37.0504 11.2799 37.6604 9.62008 37.6604 7.83008C37.6604 3.52008 34.1504 0 29.8304 0C25.5104 0 22.0004 3.51008 22.0004 7.83008C22.0004 9.62008 22.6104 11.2799 23.6304 12.5999C20.5704 14.1799 18.5804 17.3299 18.5804 20.8999V24.3999C18.5804 25.7499 19.6804 26.8499 21.0304 26.8499H35.6504C35.9604 27.8499 36.8904 28.5801 37.9904 28.5801H55.5904C56.6904 28.5801 57.6304 27.8499 57.9404 26.8499H72.5604C73.9204 26.8499 75.0204 25.7499 75.0204 24.3999V20.8999C75.0204 17.3299 73.0204 14.1699 69.9604 12.5999H69.9903ZM63.7904 2.67993C66.6304 2.67993 68.9404 4.99008 68.9404 7.83008C68.9404 10.6701 66.6304 12.98 63.7904 12.98C60.9504 12.98 58.6404 10.6701 58.6404 7.83008C58.6404 4.99008 60.9504 2.67993 63.7904 2.67993ZM46.8304 4.40991C49.6704 4.40991 51.9803 6.72006 51.9803 9.56006C51.9803 12.4001 49.6704 14.71 46.8304 14.71C43.9904 14.71 41.6804 12.4001 41.6804 9.56006C41.6804 6.72006 43.9904 4.40991 46.8304 4.40991ZM29.8603 2.67993C32.7003 2.67993 35.0104 4.99008 35.0104 7.83008C35.0104 10.6701 32.7003 12.98 29.8603 12.98C27.0203 12.98 24.7104 10.6701 24.7104 7.83008C24.7104 4.99008 27.0203 2.67993 29.8603 2.67993ZM21.2804 20.8999C21.2804 18.0399 23.1804 15.4601 25.8804 14.5601C27.0504 15.2501 28.4103 15.6499 29.8603 15.6499C31.3103 15.6499 32.6704 15.2501 33.8404 14.5601C35.2604 15.0301 36.4804 15.9499 37.3104 17.1899C36.2104 18.7299 35.5804 20.6099 35.5804 22.6199V24.1699H21.2904V20.8899L21.2804 20.8999ZM55.4104 25.9099H52.9203V22.9399C52.9203 22.1999 52.3204 21.5999 51.5804 21.5999C50.8404 21.5999 50.2404 22.1999 50.2404 22.9399V25.9099H43.4203V22.9399C43.4203 22.1999 42.8204 21.5999 42.0804 21.5999C41.3404 21.5999 40.7404 22.1999 40.7404 22.9399V25.9099H38.2504V22.6299C38.2504 19.7599 40.1604 17.18 42.8504 16.29C44.0204 16.98 45.3704 17.3799 46.8204 17.3799C48.2704 17.3799 49.6304 16.98 50.7904 16.29C53.4904 17.18 55.4004 19.7599 55.4004 22.6299V25.9099H55.4104ZM72.3704 24.1799H58.0804V22.6299C58.0804 20.6199 57.4504 18.74 56.3504 17.2C57.1804 15.96 58.4004 15.0401 59.8204 14.5701C60.9904 15.2601 62.3503 15.6599 63.8004 15.6599C65.2504 15.6599 66.6104 15.2601 67.7804 14.5701C70.4804 15.4601 72.3804 18.0399 72.3804 20.9099V24.1899L72.3704 24.1799Z" fill="url(#paint0_linear_239_408)"/>
<defs>
<linearGradient id="paint0_linear_239_408" x1="0.000374283" y1="29.01" x2="75.0504" y2="29.01" gradientUnits="userSpaceOnUse">
<stop stop-color="#6FA8FF"/>
<stop offset="1" stop-color="#C77CFF"/>
</linearGradient>
</defs>
</svg>