<svg width="53" height="59" viewBox="0 0 53 59" fill="none" xmlns="http://www.w3.org/2000/svg">
<path d="M31.47 33.99C35.72 32.68 39.31 29.7899 41.5 25.9199C41.54 25.8699 41.57 25.81 41.6 25.75C43.02 23.19 43.76 20.2999 43.75 17.3799C43.75 7.79988 35.95 0 26.37 0C16.79 0 8.99005 7.79988 8.99005 17.3799C8.99005 20.3099 9.73001 23.19 11.14 25.75C11.17 25.81 11.2001 25.8699 11.2401 25.9299C13.4301 29.7899 17.01 32.68 21.26 33.99C21.3 34 21.33 34.01 21.37 34.02C24.64 35 28.12 35 31.38 34.02C31.41 34.02 31.44 34 31.46 34L31.47 33.99ZM21.54 22.4399C21.03 21.7899 20.35 21.29 19.57 21C20.99 19.42 20.87 16.9901 19.29 15.5601C18.91 15.2201 18.46 14.95 17.97 14.78C18.49 14.1 19.4 13.6499 20.38 13.6499H22.69C23.67 13.6499 24.58 14.09 25.1 14.78C23.09 15.48 22.03 17.6699 22.72 19.6799C22.89 20.1699 23.15 20.61 23.5 21C22.72 21.29 22.04 21.7899 21.53 22.4399H21.54ZM14.44 18.4199C14.44 17.1699 15.46 16.1499 16.71 16.1499C17.96 16.1499 18.98 17.1699 18.98 18.4199C18.98 19.6699 17.96 20.6899 16.71 20.6899C15.46 20.6899 14.44 19.6699 14.44 18.4199ZM21.54 12.0698C20.29 12.0698 19.27 11.06 19.27 9.80005C19.27 8.54005 20.28 7.53003 21.54 7.53003C22.79 7.53003 23.81 8.54005 23.81 9.80005C23.81 11.05 22.79 12.0698 21.54 12.0698ZM24.1 18.4199C24.1 17.1699 25.12 16.1499 26.37 16.1499C27.62 16.1499 28.64 17.1699 28.64 18.4199C28.64 19.6699 27.62 20.6899 26.37 20.6899C25.12 20.6899 24.1 19.6699 24.1 18.4199ZM27.63 14.78C28.15 14.1 29.06 13.6499 30.04 13.6499H32.35C33.33 13.6499 34.24 14.09 34.76 14.78C32.75 15.48 31.69 17.6699 32.38 19.6799C32.55 20.1699 32.81 20.61 33.16 21C32.38 21.29 31.7 21.7899 31.19 22.4399C30.68 21.7899 30 21.29 29.22 21C30.64 19.42 30.52 16.9901 28.94 15.5601C28.56 15.2101 28.11 14.95 27.62 14.78H27.63ZM31.2 12.0698C29.95 12.0698 28.9301 11.05 28.9301 9.80005C28.9301 8.55005 29.95 7.53003 31.2 7.53003C32.45 7.53003 33.47 8.55005 33.47 9.80005C33.47 11.05 32.45 12.0698 31.2 12.0698ZM36.03 20.6899C34.78 20.6899 33.76 19.6799 33.76 18.4199C33.76 17.1599 34.77 16.1499 36.03 16.1499C37.29 16.1499 38.3 17.1599 38.3 18.4199C38.3 19.6699 37.28 20.6899 36.03 20.6899ZM31.9901 32.1299V24.74C31.9901 23.38 33.28 22.28 34.87 22.28H37.1801C38.7701 22.28 40.06 23.38 40.06 24.74V25.23C38.24 28.39 35.3901 30.8199 31.9901 32.1299ZM26.37 1.56982C35.08 1.56982 42.16 8.65987 42.16 17.3699C42.16 19.2599 41.82 21.1299 41.16 22.8999C40.65 22.0199 39.85 21.35 38.89 21C40.31 19.42 40.19 16.9901 38.61 15.5601C38.02 15.0301 37.2801 14.6899 36.4901 14.5999C36.0101 13.5699 35.13 12.7699 34.06 12.3799C35.48 10.7999 35.36 8.35994 33.77 6.93994C32.19 5.51994 29.75 5.63998 28.33 7.22998C27.01 8.69998 27.01 10.9199 28.33 12.3899C27.55 12.6799 26.87 13.1698 26.36 13.8298C25.85 13.1798 25.17 12.6799 24.39 12.3899C25.81 10.8099 25.68 8.36995 24.1 6.94995C22.52 5.52995 20.08 5.65999 18.66 7.23999C17.34 8.70999 17.34 10.9299 18.66 12.3999C17.59 12.7899 16.71 13.5799 16.23 14.6199C14.12 14.8699 12.61 16.7899 12.87 18.8999C12.96 19.6899 13.3 20.43 13.83 21.02C12.87 21.37 12.07 22.0399 11.56 22.9199C10.9 21.1499 10.56 19.2799 10.56 17.3899C10.56 8.67989 17.65 1.58984 26.36 1.58984L26.37 1.56982ZM12.67 25.23V24.74C12.67 23.38 13.96 22.28 15.55 22.28H17.86C19.45 22.28 20.7401 23.38 20.7401 24.74V32.1299C17.3401 30.8199 14.49 28.39 12.67 25.23ZM22.33 32.6399V24.74C22.33 23.38 23.62 22.28 25.21 22.28H27.52C29.11 22.28 30.4 23.38 30.4 24.74V32.6399C27.75 33.3399 24.97 33.3399 22.32 32.6399H22.33ZM52.76 19.72C52.76 19.56 52.75 19.39 52.7401 19.22C52.7001 17.94 52.63 15.7899 50.01 15.3699C49.15 15.2299 48.2701 15.4299 47.55 15.9299C46.96 16.3499 46.56 16.99 46.44 17.7C46.44 17.71 46.44 17.73 46.44 17.74L45.14 30.28C44.06 30.02 42.83 30.2 41.7 31.03L33.31 37.22C31.84 38.3 31.1 39.81 30.96 41.96L30.6 47.6299L29.67 47.48C28.71 47.33 27.81 47.9799 27.66 48.9399L26.97 53.28C26.82 54.24 27.4801 55.14 28.4301 55.29L45.14 57.9399C46.1 58.0899 46.99 57.43 47.15 56.48L47.84 52.1299C47.99 51.1699 47.34 50.2699 46.38 50.1199L45.07 49.9099L45.36 48.0601C45.47 47.2601 45.91 46.5398 46.56 46.0698L49.87 43.5798C51.6 42.2798 52.48 40.6199 52.51 38.6199L52.77 19.75C52.77 19.75 52.77 19.7099 52.77 19.6899L52.76 19.72ZM46.23 51.78C46.23 51.78 46.27 51.8599 46.26 51.9099L45.57 56.26C45.55 56.35 45.47 56.4199 45.37 56.3999L28.67 53.75C28.58 53.73 28.51 53.64 28.53 53.55L29.22 49.21C29.24 49.12 29.32 49.0498 29.42 49.0698L44.02 51.3799C44.02 51.3799 44.02 51.3799 44.03 51.3799L46.11 51.71C46.11 51.71 46.2 51.74 46.22 51.78H46.23ZM50.91 38.6299C50.89 40.1499 50.25 41.3298 48.9 42.3398L45.59 44.8298C44.61 45.5498 43.95 46.6398 43.78 47.8398L43.4901 49.6899L32.17 47.8999L32.54 42.0798C32.65 40.4098 33.17 39.31 34.25 38.51L42.64 32.3198C44 31.3198 45.48 31.8 46.19 32.76C46.81 33.6 46.88 34.9299 45.23 36.1599L40.2 39.8699C39.85 40.1299 39.77 40.63 40.03 40.98C40.29 41.33 40.79 41.4099 41.14 41.1499L46.17 37.4399C48.6 35.6499 48.58 33.3298 47.47 31.8298C47.24 31.5198 46.97 31.25 46.66 31.02L48.02 17.96C48.08 17.67 48.25 17.41 48.4901 17.24C48.8601 16.98 49.32 16.88 49.76 16.96C50.97 17.15 51.1 17.75 51.15 19.29C51.15 19.46 51.16 19.63 51.17 19.8L50.91 38.6399V38.6299ZM31.9 51.9099C31.82 52.2699 31.5 52.53 31.13 52.53C31.07 52.53 31.01 52.53 30.96 52.51H30.9301C30.5001 52.41 30.23 51.9901 30.33 51.5601C30.43 51.1301 30.85 50.86 31.28 50.96H31.31C31.74 51.06 32.01 51.4799 31.91 51.9099H31.9ZM25.09 48.96C24.94 48 24.04 47.35 23.08 47.5L22.15 47.6499L21.79 41.98C21.65 39.83 20.91 38.32 19.44 37.24L11.05 31.05C9.93005 30.22 8.7 30.04 7.62 30.3L6.31 17.76C6.31 17.76 6.31 17.73 6.31 17.72C6.19 17 5.79001 16.37 5.20001 15.95C4.49001 15.45 3.61 15.2399 2.75 15.3899C0.13 15.7999 0.0600195 17.95 0.0200195 19.24C0.0200195 19.41 0.01 19.57 0 19.74C0 19.76 0 19.78 0 19.8L0.26001 38.6699C0.29001 40.6699 1.17002 42.3399 2.90002 43.6299L6.21002 46.1199C6.86002 46.5899 7.30003 47.3099 7.41003 48.1099L7.70001 49.96L6.39001 50.1699C5.43001 50.3199 4.78005 51.2199 4.93005 52.1799L5.62 56.53C5.77999 57.49 6.67 58.14 7.63 57.99L24.33 55.3398C25.29 55.1898 25.94 54.2898 25.79 53.3298L25.1 48.99L25.09 48.96ZM8.96002 47.8398C8.78002 46.6298 8.13002 45.5498 7.15002 44.8298L3.84003 42.3398C2.49003 41.3298 1.85002 40.1499 1.83002 38.6299L1.57001 19.79C1.57001 19.62 1.58003 19.45 1.59003 19.28C1.64003 17.74 1.77004 17.14 2.98004 16.95C3.42004 16.87 3.88 16.97 4.25 17.23C4.49 17.4 4.66003 17.65 4.72003 17.95L6.08002 31.01C5.77002 31.24 5.50002 31.5198 5.27002 31.8198C4.16002 33.3198 4.14001 35.6399 6.57001 37.4299L11.6 41.1399C11.95 41.3999 12.45 41.33 12.71 40.97C12.97 40.62 12.9 40.1199 12.54 39.8599L7.51001 36.1499C5.85001 34.9299 5.93005 33.59 6.55005 32.75C7.26005 31.79 8.74004 31.3101 10.1 32.3101L18.4901 38.5C19.5601 39.29 20.09 40.3901 20.2 42.0601L20.57 47.8799L9.25 49.6699L8.96002 47.8198V47.8398ZM24.07 53.75L7.37 56.3999C7.27999 56.4099 7.19004 56.35 7.17004 56.26L6.48004 51.9099C6.48004 51.9099 6.48001 51.82 6.51001 51.78C6.54001 51.74 6.58 51.72 6.62 51.71L8.70001 51.3799C8.70001 51.3799 8.70002 51.3799 8.71002 51.3799C8.71002 51.3799 8.72004 51.3799 8.73004 51.3799L23.31 49.0698C23.31 49.0698 23.33 49.0698 23.34 49.0698C23.42 49.0698 23.5 49.13 23.51 49.22L24.2 53.5601C24.21 53.6501 24.15 53.74 24.06 53.76L24.07 53.75ZM22.42 51.5601C22.51 51.9901 22.25 52.41 21.82 52.51H21.79C21.73 52.53 21.68 52.54 21.62 52.54C21.18 52.54 20.83 52.19 20.83 51.75C20.83 51.38 21.09 51.05 21.45 50.97H21.48C21.91 50.87 22.3301 51.1398 22.4301 51.5698L22.42 51.5601Z" fill="url(#paint0_linear_239_427)"/>
<defs>
<linearGradient id="paint0_linear_239_427" x1="-0.02" y1="28.99" x2="52.76" y2="28.99" gradientUnits="userSpaceOnUse">
<stop stop-color="#6FA8FF"/>
<stop offset="1" stop-color="#C77CFF"/>
</linearGradient>
</defs>
</svg>
