<svg width="35" height="59" viewBox="0 0 35 59" fill="none" xmlns="http://www.w3.org/2000/svg">
<path d="M28.245 54.536C27.955 54.536 27.695 54.336 27.615 54.046L17.395 15.1959C17.305 14.8459 17.515 14.4858 17.865 14.3958C18.215 14.3058 18.575 14.5158 18.665 14.8658L28.885 53.7159C28.975 54.0659 28.765 54.4259 28.415 54.5159C28.345 54.5259 28.295 54.526 28.245 54.526V54.536ZM6.44502 54.536C6.39502 54.536 6.32504 54.5259 6.27504 54.5059C5.92504 54.4159 5.71504 54.0559 5.80504 53.7059L16.025 14.8558C16.115 14.5058 16.475 14.2958 16.825 14.3858C17.175 14.4758 17.385 14.8359 17.295 15.1859L7.07502 54.036C7.00502 54.346 6.73502 54.536 6.44502 54.536Z" fill="url(#paint0_linear_239_345)" stroke="url(#paint1_linear_239_345)" stroke-width="0.75" stroke-miterlimit="10"/>
<path d="M27.165 50.4657C27.075 50.4657 26.965 50.4357 26.875 50.3957L9.47499 41.8757C9.26499 41.7757 9.135 41.5756 9.105 41.3356C9.095 41.0956 9.185 40.8758 9.385 40.7458L21.255 32.2157L13.095 28.1056C12.895 28.0056 12.765 27.8156 12.745 27.5956C12.725 27.3756 12.815 27.1658 12.985 27.0158L19.505 21.6657C19.785 21.4257 20.205 21.4858 20.425 21.7558C20.665 22.0358 20.605 22.4557 20.335 22.6757L14.605 27.3857L22.835 31.5358C23.045 31.6358 23.175 31.8356 23.185 32.0756C23.195 32.2956 23.105 32.5257 22.905 32.6657L11.045 41.1857L27.455 49.2157C27.785 49.3757 27.915 49.7656 27.755 50.0956C27.635 50.3156 27.415 50.4657 27.165 50.4657Z" fill="url(#paint2_linear_239_345)" stroke="url(#paint3_linear_239_345)" stroke-width="0.75" stroke-miterlimit="10"/>
<path d="M33.625 58.3757H1.08502C0.715022 58.3757 0.425018 58.0858 0.425018 57.7158V55.7859C0.425018 54.3659 1.57503 53.2158 2.99503 53.2158H31.705C33.125 53.2158 34.275 54.3659 34.275 55.7859V57.7158C34.275 58.0858 33.975 58.3757 33.615 58.3757H33.625ZM1.72501 57.0657H32.955V55.7959C32.955 55.0959 32.395 54.5359 31.695 54.5359H2.99503C2.29503 54.5359 1.73502 55.0959 1.73502 55.7959V57.0657H1.72501Z" fill="url(#paint4_linear_239_345)" stroke="url(#paint5_linear_239_345)" stroke-width="0.75" stroke-miterlimit="10"/>
<path d="M17.355 15.7759C15.535 15.7759 14.065 14.2958 14.065 12.4858C14.065 10.6758 15.545 9.1958 17.355 9.1958C19.165 9.1958 20.645 10.6758 20.645 12.4858C20.645 14.2958 19.165 15.7759 17.355 15.7759ZM17.355 10.4958C16.265 10.4958 15.375 11.3858 15.375 12.4758C15.375 13.5658 16.265 14.4558 17.355 14.4558C18.445 14.4558 19.335 13.5658 19.335 12.4758C19.335 11.3858 18.445 10.4958 17.355 10.4958Z" fill="url(#paint6_linear_239_345)" stroke="url(#paint7_linear_239_345)" stroke-width="0.75" stroke-miterlimit="10"/>
<path d="M20.775 18.776C20.535 18.776 20.315 18.6459 20.195 18.4259C20.025 18.1159 20.145 17.706 20.475 17.536C22.535 16.446 23.755 14.5559 23.755 12.4859C23.755 10.4159 22.535 8.5259 20.475 7.4359C20.165 7.2659 20.025 6.87601 20.195 6.54601C20.365 6.23601 20.755 6.09598 21.085 6.26598C23.575 7.59598 25.065 9.91595 25.065 12.4859C25.065 15.0559 23.585 17.3759 21.085 18.7059C20.985 18.7559 20.865 18.786 20.775 18.786V18.776Z" fill="url(#paint8_linear_239_345)" stroke="url(#paint9_linear_239_345)" stroke-width="0.75" stroke-miterlimit="10"/>
<path d="M24.125 21.7058C23.915 21.7058 23.705 21.6057 23.575 21.4057C23.375 21.1057 23.475 20.6958 23.775 20.4958C26.715 18.5758 28.405 15.6658 28.405 12.4758C28.405 9.28581 26.715 6.37579 23.775 4.45579C23.475 4.25579 23.385 3.85588 23.575 3.54588C23.765 3.23588 24.175 3.15569 24.485 3.34569C27.765 5.47569 29.725 8.8858 29.725 12.4658C29.725 16.0458 27.765 19.4557 24.485 21.5857C24.385 21.6557 24.245 21.6858 24.135 21.6858L24.125 21.7058Z" fill="url(#paint10_linear_239_345)" stroke="url(#paint11_linear_239_345)" stroke-width="0.75" stroke-miterlimit="10"/>
<path d="M27.405 24.5758C27.195 24.5758 26.995 24.486 26.865 24.296C26.655 23.996 26.725 23.5858 27.025 23.3758C30.835 20.6958 33.005 16.7259 33.005 12.4759C33.005 8.22591 30.825 4.26577 27.035 1.57577C26.735 1.36577 26.665 0.955845 26.875 0.655845C27.085 0.355845 27.495 0.285933 27.795 0.495933C31.955 3.42593 34.325 7.7959 34.325 12.4659C34.325 17.1359 31.935 21.5059 27.795 24.4359C27.675 24.5359 27.535 24.5758 27.405 24.5758Z" fill="url(#paint12_linear_239_345)" stroke="url(#paint13_linear_239_345)" stroke-width="0.75" stroke-miterlimit="10"/>
<path d="M13.925 18.7759C13.825 18.7759 13.715 18.7458 13.625 18.6958C11.135 17.3658 9.64502 15.0458 9.64502 12.4758C9.64502 9.90581 11.125 7.58584 13.625 6.25584C13.935 6.08584 14.345 6.20587 14.515 6.53587C14.685 6.84587 14.565 7.25576 14.235 7.42576C12.175 8.51576 10.955 10.4058 10.955 12.4758C10.955 14.5458 12.175 16.4359 14.235 17.5259C14.545 17.6959 14.685 18.0857 14.515 18.4157C14.385 18.6357 14.165 18.7658 13.925 18.7658V18.7759Z" fill="url(#paint14_linear_239_345)" stroke="url(#paint15_linear_239_345)" stroke-width="0.75" stroke-miterlimit="10"/>
<path d="M10.565 21.7059C10.445 21.7059 10.315 21.6658 10.215 21.6058C6.93503 19.4758 4.97501 16.0659 4.97501 12.4859C4.97501 8.9059 6.93503 5.49578 10.215 3.36578C10.515 3.16578 10.925 3.26574 11.125 3.56574C11.325 3.86574 11.225 4.27589 10.925 4.47589C7.98502 6.39589 6.29501 9.30591 6.29501 12.4959C6.29501 15.6859 7.98502 18.5959 10.925 20.5159C11.225 20.7159 11.315 21.1158 11.125 21.4258C11.005 21.6258 10.795 21.7259 10.575 21.7259L10.565 21.7059Z" fill="url(#paint16_linear_239_345)" stroke="url(#paint17_linear_239_345)" stroke-width="0.75" stroke-miterlimit="10"/>
<path d="M7.285 24.5758C7.155 24.5758 7.02503 24.5359 6.90503 24.4559C2.74503 21.5259 0.375 17.1559 0.375 12.4859C0.375 7.81592 2.76503 3.44595 6.90503 0.515953C7.20503 0.305953 7.61501 0.375865 7.82501 0.675865C8.03501 0.975865 7.96501 1.38579 7.66501 1.59579C3.85501 4.27579 1.68503 8.24593 1.68503 12.4959C1.68503 16.7459 3.86501 20.7058 7.66501 23.3958C7.96501 23.6058 8.03501 24.0158 7.82501 24.3158C7.69501 24.4558 7.485 24.5658 7.285 24.5658V24.5758Z" fill="url(#paint18_linear_239_345)" stroke="url(#paint19_linear_239_345)" stroke-width="0.75" stroke-miterlimit="10"/>
<path d="M7.47499 50.6659C7.23499 50.6659 7.00501 50.5358 6.89501 50.3158C6.72501 49.9858 6.85501 49.5959 7.17501 49.4359L23.535 40.9459L11.625 33.4959C11.325 33.2959 11.235 32.8958 11.415 32.5858C11.615 32.2858 12.015 32.1958 12.325 32.3758L25.215 40.4459C25.415 40.5759 25.525 40.786 25.515 41.026C25.505 41.266 25.375 41.4758 25.165 41.5758L7.77501 50.5858C7.69501 50.6558 7.595 50.6659 7.485 50.6659H7.47499Z" fill="url(#paint20_linear_239_345)" stroke="url(#paint21_linear_239_345)" stroke-width="0.75" stroke-miterlimit="10"/>
<defs>
<linearGradient id="paint0_linear_239_345" x1="5.78504" y1="34.4459" x2="28.905" y2="34.4459" gradientUnits="userSpaceOnUse">
<stop stop-color="#6FA8FF"/>
<stop offset="1" stop-color="#C77CFF"/>
</linearGradient>
<linearGradient id="paint1_linear_239_345" x1="5.40504" y1="34.4459" x2="29.285" y2="34.4459" gradientUnits="userSpaceOnUse">
<stop stop-color="#6FA8FF"/>
<stop offset="1" stop-color="#C77CFF"/>
</linearGradient>
<linearGradient id="paint2_linear_239_345" x1="9.115" y1="35.9957" x2="27.825" y2="35.9957" gradientUnits="userSpaceOnUse">
<stop stop-color="#6FA8FF"/>
<stop offset="1" stop-color="#C77CFF"/>
</linearGradient>
<linearGradient id="paint3_linear_239_345" x1="8.735" y1="35.9957" x2="28.195" y2="35.9957" gradientUnits="userSpaceOnUse">
<stop stop-color="#6FA8FF"/>
<stop offset="1" stop-color="#C77CFF"/>
</linearGradient>
<linearGradient id="paint4_linear_239_345" x1="0.425018" y1="55.7958" x2="34.275" y2="55.7958" gradientUnits="userSpaceOnUse">
<stop stop-color="#6FA8FF"/>
<stop offset="1" stop-color="#C77CFF"/>
</linearGradient>
<linearGradient id="paint5_linear_239_345" x1="0.0550183" y1="55.7958" x2="34.655" y2="55.7958" gradientUnits="userSpaceOnUse">
<stop stop-color="#6FA8FF"/>
<stop offset="1" stop-color="#C77CFF"/>
</linearGradient>
<linearGradient id="paint6_linear_239_345" x1="14.055" y1="12.4758" x2="20.645" y2="12.4758" gradientUnits="userSpaceOnUse">
<stop stop-color="#6FA8FF"/>
<stop offset="1" stop-color="#C77CFF"/>
</linearGradient>
<linearGradient id="paint7_linear_239_345" x1="13.685" y1="12.4758" x2="21.025" y2="12.4758" gradientUnits="userSpaceOnUse">
<stop stop-color="#6FA8FF"/>
<stop offset="1" stop-color="#C77CFF"/>
</linearGradient>
<linearGradient id="paint8_linear_239_345" x1="20.125" y1="12.486" x2="25.065" y2="12.486" gradientUnits="userSpaceOnUse">
<stop stop-color="#6FA8FF"/>
<stop offset="1" stop-color="#C77CFF"/>
</linearGradient>
<linearGradient id="paint9_linear_239_345" x1="19.745" y1="12.486" x2="25.445" y2="12.486" gradientUnits="userSpaceOnUse">
<stop stop-color="#6FA8FF"/>
<stop offset="1" stop-color="#C77CFF"/>
</linearGradient>
<linearGradient id="paint10_linear_239_345" x1="23.465" y1="12.4758" x2="29.715" y2="12.4758" gradientUnits="userSpaceOnUse">
<stop stop-color="#6FA8FF"/>
<stop offset="1" stop-color="#C77CFF"/>
</linearGradient>
<linearGradient id="paint11_linear_239_345" x1="23.095" y1="12.4758" x2="30.085" y2="12.4758" gradientUnits="userSpaceOnUse">
<stop stop-color="#6FA8FF"/>
<stop offset="1" stop-color="#C77CFF"/>
</linearGradient>
<linearGradient id="paint12_linear_239_345" x1="26.745" y1="12.4758" x2="34.335" y2="12.4758" gradientUnits="userSpaceOnUse">
<stop stop-color="#6FA8FF"/>
<stop offset="1" stop-color="#C77CFF"/>
</linearGradient>
<linearGradient id="paint13_linear_239_345" x1="26.365" y1="12.4758" x2="34.705" y2="12.4758" gradientUnits="userSpaceOnUse">
<stop stop-color="#6FA8FF"/>
<stop offset="1" stop-color="#C77CFF"/>
</linearGradient>
<linearGradient id="paint14_linear_239_345" x1="9.65502" y1="12.4759" x2="14.595" y2="12.4759" gradientUnits="userSpaceOnUse">
<stop stop-color="#6FA8FF"/>
<stop offset="1" stop-color="#C77CFF"/>
</linearGradient>
<linearGradient id="paint15_linear_239_345" x1="9.27502" y1="12.4759" x2="14.975" y2="12.4759" gradientUnits="userSpaceOnUse">
<stop stop-color="#6FA8FF"/>
<stop offset="1" stop-color="#C77CFF"/>
</linearGradient>
<linearGradient id="paint16_linear_239_345" x1="4.97501" y1="12.4758" x2="11.225" y2="12.4758" gradientUnits="userSpaceOnUse">
<stop stop-color="#6FA8FF"/>
<stop offset="1" stop-color="#C77CFF"/>
</linearGradient>
<linearGradient id="paint17_linear_239_345" x1="4.60501" y1="12.4758" x2="11.595" y2="12.4758" gradientUnits="userSpaceOnUse">
<stop stop-color="#6FA8FF"/>
<stop offset="1" stop-color="#C77CFF"/>
</linearGradient>
<linearGradient id="paint18_linear_239_345" x1="0.375" y1="12.4958" x2="7.94501" y2="12.4958" gradientUnits="userSpaceOnUse">
<stop stop-color="#6FA8FF"/>
<stop offset="1" stop-color="#C77CFF"/>
</linearGradient>
<linearGradient id="paint19_linear_239_345" x1="-0.00500055" y1="12.4958" x2="8.32501" y2="12.4958" gradientUnits="userSpaceOnUse">
<stop stop-color="#6FA8FF"/>
<stop offset="1" stop-color="#C77CFF"/>
</linearGradient>
<linearGradient id="paint20_linear_239_345" x1="6.82501" y1="41.4658" x2="25.505" y2="41.4658" gradientUnits="userSpaceOnUse">
<stop stop-color="#6FA8FF"/>
<stop offset="1" stop-color="#C77CFF"/>
</linearGradient>
<linearGradient id="paint21_linear_239_345" x1="6.44501" y1="41.4658" x2="25.875" y2="41.4658" gradientUnits="userSpaceOnUse">
<stop stop-color="#6FA8FF"/>
<stop offset="1" stop-color="#C77CFF"/>
</linearGradient>
</defs>
</svg>