<svg width="90" height="82" viewBox="0 0 90 82" fill="none" xmlns="http://www.w3.org/2000/svg">
<path d="M85.52 24.8616H48.69C46.48 24.8516 44.93 26.5215 44.93 28.6915L44.95 45.9315C44.95 48.3515 47.09 49.5615 49.23 49.5615L85.42 49.5415C87.32 49.5415 89.01 47.6716 89.01 46.0016V28.0815C89.02 26.3615 87.31 24.8516 85.52 24.8516V24.8616ZM55.88 28.6915C57.35 28.2615 58.99 28.4615 60.07 29.4415C61.06 30.3415 61.68 31.8016 61.41 33.4716C61.04 35.6816 59.12 36.7716 57.31 36.7816C55.25 36.7816 53.55 35.2815 53.18 33.4415C52.76 31.3615 53.83 29.2815 55.88 28.6915ZM64.28 45.1715L50.37 45.2015C49.92 43.3615 50.03 41.5316 50.84 40.0216C51.67 38.4716 52.99 37.7015 54.72 37.6915H59.7C61.44 37.6715 63.1 38.2816 63.85 40.0016C64.5 41.5016 64.55 43.0515 64.29 45.1715H64.28ZM82.63 42.8115H68.76C68.03 42.8015 67.49 42.0316 67.56 41.4916C67.68 40.5316 68.37 40.5316 69.21 40.5316L82.85 40.5916C83.09 40.9916 83.32 41.4016 83.43 41.6616C83.54 41.9216 82.97 42.8215 82.63 42.8215V42.8115ZM83.45 37.0415C83.33 37.3715 82.72 37.8916 82.12 37.8816L68.74 37.8616C68.33 37.8616 67.78 37.3116 67.64 37.0016C67.5 36.6916 67.85 35.6416 68.4 35.6416L82.85 35.6715C83.22 35.6715 83.58 36.7016 83.46 37.0316L83.45 37.0415ZM82.73 32.9116L68.71 32.9716C68.27 32.9716 67.63 32.4516 67.54 32.1016C67.41 31.6016 67.81 30.7015 68.43 30.7015H82.29C82.8 30.6915 83.42 31.1516 83.5 31.5116C83.59 31.8916 83.25 32.9116 82.72 32.9116H82.73Z" fill="url(#paint0_linear_97_262)"/>
<path d="M48.4 61.9215C48.42 61.2415 47.94 60.6015 47.36 60.4915C46.88 60.4015 45.95 60.7615 45.95 61.3215L45.89 70.2215C45.87 73.3215 46.25 75.6515 44.01 77.5415C42.58 78.7515 41.02 78.9715 38.89 78.9615L7.99001 78.8615C4.70001 78.8515 2.63 76.3615 2.63 73.2015V73.1715C2.63 71.4115 2.63 69.6516 2.63 67.8916C2.63 63.8816 2.63 59.8615 2.64 55.8515C2.64 50.7115 2.63999 45.5715 2.64999 40.4315C2.64999 35.3015 2.65 30.1616 2.66 25.0316V13.0316C2.67 10.2416 2.06 6.40152 4.28 4.34152C4.9 3.77152 5.62999 3.34155 6.39999 3.00155C7.83999 2.38155 9.21 2.51156 10.75 2.51156C12.81 2.51156 14.88 2.51157 16.94 2.52157C22.1 2.53157 27.25 2.54148 32.41 2.55148C35.14 2.55148 37.87 2.5615 40.6 2.5715C43.8 2.5715 45.91 5.72156 45.88 8.51156L45.8 14.9215L45.77 17.3916L45.83 20.6815C45.84 21.4415 46.26 22.2016 46.91 22.2816C47.6 22.3716 48.37 21.7515 48.37 20.9715L48.3 7.43148C48.28 3.84148 44.84 0.451492 41.31 0.191492C38.28 -0.0285075 35.59 -0.00843919 32.63 0.0115608L7.42 0.161585C3.32 0.181585 0.61 3.93149 0 7.81149L0.0200043 73.7716C0.0200043 78.3416 4.30999 81.5915 8.50999 81.5815L15.4 81.5615C16.16 81.5615 16.9 81.5616 17.66 81.5216L41.29 81.3816C44.6 81.3616 47.93 78.1515 48.23 74.9315C48.64 70.4515 48.27 66.3616 48.42 61.9116H48.41L48.4 61.9215Z" fill="url(#paint1_linear_97_262)"/>
<path d="M36.36 53.9016C38.31 48.8116 38.82 43.6916 36.7 38.6316C34.05 32.3316 27.34 28.8316 20.67 30.5016C15.74 31.7316 12.11 35.4915 10.48 40.2015C9.64999 42.6315 7.53 42.7316 8.13 43.7616C8.27 44.0016 8.95999 44.2615 9.22999 44.1715C11.66 43.3615 11.81 40.2716 14.65 36.4716C16.89 33.4816 20.59 31.8216 24.29 31.8816C27.89 31.9416 31.35 33.8016 33.63 36.8616C39.03 44.1416 35.39 55.7816 29.21 60.7416C28.93 60.9616 28.9 61.7015 29.04 61.9215C30.33 63.9615 35.38 56.4616 36.36 53.8916V53.9016Z" fill="url(#paint2_linear_97_262)"/>
<path d="M23.24 62.8616C31.6 58.7416 37.42 47.3315 32.53 38.9315C30.25 35.0215 25.61 33.0615 21.22 34.3015C17.48 35.3615 15.07 38.3916 13.93 42.0016C12.3 47.1416 8.44999 45.8716 8.72999 47.7516C8.90999 48.9916 13.69 48.1116 15.61 42.6916C16.65 39.7416 18.46 37.1616 21.56 36.1316C24.63 35.1116 28.28 36.1716 30.31 38.8816C32.48 41.7716 32.89 45.2816 32.13 48.6516C30.89 54.1416 27.28 58.4916 22.48 61.3716C22.19 61.5516 21.93 62.2916 22.02 62.5916C22.11 62.9016 22.88 63.0316 23.25 62.8516L23.24 62.8616Z" fill="url(#paint3_linear_97_262)"/>
<path d="M17.61 61.4216C21.57 60.2516 24.79 57.6116 27.25 54.3616C30.9 49.5116 32.28 41.2216 26.52 38.4916C24.4 37.4816 21.86 37.7316 20.02 39.1816C18.6 40.3016 17.83 42.0616 17.32 43.7516C15.38 50.1716 9.87001 49.6017 9.63001 50.8817C9.58001 51.1317 9.76001 51.7216 9.99001 51.8216C10.22 51.9216 10.82 51.9116 11.08 51.8416C14.88 50.8516 17.69 48.3917 18.92 44.6617C19.36 43.3317 20.01 41.9116 20.98 40.9216C22.85 39.0216 25.61 39.3017 27.31 41.4017C30.21 44.9817 27.92 50.5316 25.42 53.8516C21.44 59.1516 16.07 59.4016 16.55 60.9616C16.62 61.2016 17.35 61.5016 17.6 61.4216H17.61Z" fill="url(#paint4_linear_97_262)"/>
<path d="M40.7 42.6016C42.52 41.8516 40.31 37.0916 39.57 35.7716C36.08 29.5016 29.32 25.4816 22.02 26.4016C11.73 27.6916 5.94999 38.3116 8.55999 37.9716C8.86999 37.9316 9.54999 37.5915 9.67999 37.2915C12.29 31.8015 17.3 28.4716 23.43 28.1416C29.32 27.8216 34.49 31.0916 37.85 36.0316C40.11 39.3516 39.46 43.1016 40.69 42.5916L40.7 42.6016Z" fill="url(#paint5_linear_97_262)"/>
<path d="M13.62 57.0217C13.24 57.1317 12.91 57.6116 12.91 57.9616C12.87 59.8416 21.68 57.2516 25.24 50.1916C26.35 47.9916 26.9 45.4716 26.11 43.1716C25.68 41.9316 24.44 41.7716 23.23 41.9216C20.68 42.2516 21.46 46.2016 19.09 49.1116C14.79 54.3816 10.08 52.8716 11.07 54.8816C11.86 56.4716 17.44 53.3816 19.32 51.6116C22.83 48.2916 22.84 42.5916 24.21 43.5716C25.84 44.7416 24.32 53.8817 13.62 57.0217Z" fill="url(#paint6_linear_97_262)"/>
<path d="M13.07 27.1715C13.28 27.3715 13.91 27.3816 14.23 27.2116C22.53 22.7116 31.56 23.8615 38.01 31.0415C38.29 31.3515 38.93 31.5216 39.23 31.3916C39.49 31.2816 39.59 30.3116 39.4 30.0816C35.44 25.0816 29.26 22.2516 22.78 22.7016C19.35 22.9416 16.2 24.0616 13.31 25.7516C13 25.9316 12.82 26.9317 13.07 27.1617V27.1715Z" fill="url(#paint7_linear_97_262)"/>
<path d="M13.89 22.9315C14.07 23.1115 14.73 23.1616 15.02 23.0216C21.54 19.7516 29.17 19.9015 35.37 24.3315C35.65 24.5315 36.48 24.3316 36.56 24.0216C36.63 23.7616 36.45 23.1215 36.2 22.9415C29.73 18.2115 21.15 17.7615 14.21 21.7515C13.91 21.9215 13.66 22.7215 13.88 22.9415L13.89 22.9315Z" fill="url(#paint8_linear_97_262)"/>
<path d="M20.34 8.48153C21.04 8.48153 21.73 8.48152 22.43 8.47152C23.95 8.46152 25.47 8.45149 26.99 8.44149C27.61 8.44149 28.23 8.44148 28.84 8.43148C29.18 8.43148 29.61 8.48159 29.99 8.41159C30.19 8.37159 30.37 8.34155 30.54 8.25155C30.79 8.11155 30.9 7.82149 31 7.56149C31.09 7.34149 31.1 7.00157 31.03 6.77157C30.98 6.59157 30.85 6.4415 30.71 6.3215C30.04 5.7015 29.18 5.85153 28.34 5.85153H24.95C23.53 5.85153 22.1 5.85153 20.68 5.85153C19.67 5.85153 18.08 5.54148 17.85 6.93148C17.76 7.47148 18.04 8.04149 18.52 8.31149C19.06 8.61149 19.76 8.50154 20.35 8.49154L20.34 8.48153Z" fill="url(#paint9_linear_97_262)"/>
<path d="M40.46 51.9916C41.4 50.2616 42.63 44.3417 40.55 44.9117C40.32 44.9817 40.11 45.4416 40.07 45.7616C39.86 47.6616 39.56 49.4016 39.17 51.2616C39.11 51.5216 39.19 51.9716 39.25 52.1816C39.32 52.3916 40.32 52.2416 40.46 51.9916Z" fill="url(#paint10_linear_97_262)"/>
<path d="M59.69 37.6815H54.71C52.98 37.7015 51.66 38.4716 50.83 40.0216C50.03 41.5216 49.91 43.3515 50.36 45.2015L64.27 45.1715C64.53 43.0515 64.49 41.5016 63.83 40.0016C63.08 38.2816 61.42 37.6715 59.68 37.6815H59.69Z" fill="white"/>
<path d="M57.31 36.7816C59.12 36.7816 61.04 35.6816 61.41 33.4716C61.69 31.8016 61.07 30.3415 60.07 29.4415C58.98 28.4515 57.35 28.2615 55.88 28.6915C53.82 29.2915 52.76 31.3615 53.18 33.4415C53.55 35.2815 55.25 36.7916 57.31 36.7816Z" fill="white"/>
<path d="M82.28 30.6915H68.42C67.8 30.7015 67.4 31.6016 67.53 32.1016C67.62 32.4616 68.26 32.9816 68.7 32.9716L82.72 32.9116C83.25 32.9116 83.59 31.8916 83.5 31.5116C83.41 31.1516 82.79 30.6915 82.29 30.6915H82.28Z" fill="white"/>
<path d="M82.85 40.5916L69.21 40.5316C68.37 40.5316 67.68 40.5316 67.56 41.4916C67.49 42.0316 68.03 42.8015 68.76 42.8015H82.63C82.96 42.8115 83.54 41.9216 83.43 41.6616C83.32 41.4016 83.09 40.9916 82.85 40.5916Z" fill="white"/>
<path d="M82.84 35.6815L68.39 35.6516C67.84 35.6516 67.48 36.7016 67.63 37.0116C67.78 37.3216 68.32 37.8716 68.73 37.8716L82.11 37.8916C82.71 37.8916 83.32 37.3815 83.44 37.0515C83.56 36.7215 83.21 35.6915 82.83 35.6915L82.84 35.6815Z" fill="white"/>
<path d="M62.17 54.4916H39.3C38.62 54.4916 38.07 55.0416 38.07 55.7216C38.07 56.4016 38.62 56.9515 39.3 56.9515H62.17C61.99 56.5815 61.89 56.1616 61.89 55.7216C61.89 55.2816 61.99 54.8616 62.17 54.4916Z" fill="url(#paint11_linear_97_262)"/>
<path d="M64.72 58.5615C66.283 58.5615 67.55 57.2945 67.55 55.7316C67.55 54.1686 66.283 52.9016 64.72 52.9016C63.157 52.9016 61.89 54.1686 61.89 55.7316C61.89 57.2945 63.157 58.5615 64.72 58.5615Z" fill="url(#paint12_linear_97_262)"/>
<defs>
<linearGradient id="paint0_linear_97_262" x1="44.93" y1="37.2015" x2="89.02" y2="37.2015" gradientUnits="userSpaceOnUse">
<stop stop-color="#6FA8FF"/>
<stop offset="1" stop-color="#C77CFF"/>
</linearGradient>
<linearGradient id="paint1_linear_97_262" x1="-0.01" y1="40.7815" x2="48.42" y2="40.7815" gradientUnits="userSpaceOnUse">
<stop stop-color="#6FA8FF"/>
<stop offset="1" stop-color="#C77CFF"/>
</linearGradient>
<linearGradient id="paint2_linear_97_262" x1="8.02" y1="46.1816" x2="38.07" y2="46.1816" gradientUnits="userSpaceOnUse">
<stop stop-color="#6FA8FF"/>
<stop offset="1" stop-color="#C77CFF"/>
</linearGradient>
<linearGradient id="paint3_linear_97_262" x1="8.71999" y1="48.4416" x2="34.32" y2="48.4416" gradientUnits="userSpaceOnUse">
<stop stop-color="#6FA8FF"/>
<stop offset="1" stop-color="#C77CFF"/>
</linearGradient>
<linearGradient id="paint4_linear_97_262" x1="9.62001" y1="49.6516" x2="30.42" y2="49.6516" gradientUnits="userSpaceOnUse">
<stop stop-color="#6FA8FF"/>
<stop offset="1" stop-color="#C77CFF"/>
</linearGradient>
<linearGradient id="paint5_linear_97_262" x1="7.92999" y1="34.4616" x2="41.4" y2="34.4616" gradientUnits="userSpaceOnUse">
<stop stop-color="#6FA8FF"/>
<stop offset="1" stop-color="#C77CFF"/>
</linearGradient>
<linearGradient id="paint6_linear_97_262" x1="10.94" y1="50.2216" x2="26.48" y2="50.2216" gradientUnits="userSpaceOnUse">
<stop stop-color="#6FA8FF"/>
<stop offset="1" stop-color="#C77CFF"/>
</linearGradient>
<linearGradient id="paint7_linear_97_262" x1="12.96" y1="27.0516" x2="39.51" y2="27.0516" gradientUnits="userSpaceOnUse">
<stop stop-color="#6FA8FF"/>
<stop offset="1" stop-color="#C77CFF"/>
</linearGradient>
<linearGradient id="paint8_linear_97_262" x1="13.8" y1="21.7215" x2="36.58" y2="21.7215" gradientUnits="userSpaceOnUse">
<stop stop-color="#6FA8FF"/>
<stop offset="1" stop-color="#C77CFF"/>
</linearGradient>
<linearGradient id="paint9_linear_97_262" x1="17.84" y1="7.15152" x2="31.07" y2="7.15152" gradientUnits="userSpaceOnUse">
<stop stop-color="#6FA8FF"/>
<stop offset="1" stop-color="#C77CFF"/>
</linearGradient>
<linearGradient id="paint10_linear_97_262" x1="39.15" y1="48.5816" x2="41.69" y2="48.5816" gradientUnits="userSpaceOnUse">
<stop stop-color="#6FA8FF"/>
<stop offset="1" stop-color="#C77CFF"/>
</linearGradient>
<linearGradient id="paint11_linear_97_262" x1="38.07" y1="55.7316" x2="62.17" y2="55.7316" gradientUnits="userSpaceOnUse">
<stop stop-color="#6FA8FF"/>
<stop offset="1" stop-color="#C77CFF"/>
</linearGradient>
<linearGradient id="paint12_linear_97_262" x1="61.89" y1="55.7316" x2="67.56" y2="55.7316" gradientUnits="userSpaceOnUse">
<stop stop-color="#6FA8FF"/>
<stop offset="1" stop-color="#C77CFF"/>
</linearGradient>
</defs>
</svg>
