<svg width="144" height="82" viewBox="0 0 144 82" fill="none" xmlns="http://www.w3.org/2000/svg">
<path d="M22.615 47.4437L25.075 44.3638L1.20504 44.2638C-0.594961 43.8438 -0.0250095 42.1337 0.654991 41.6937L25.325 41.6238L22.695 38.8538C22.395 38.5438 22.695 37.5138 23.015 37.2838C23.385 37.0238 24.475 36.9537 24.845 37.3137L29.5451 41.9738C29.9851 42.4138 30.155 43.4338 29.745 43.8438L24.985 48.5338C24.705 48.8138 23.795 48.9938 23.415 48.9638C22.975 48.9338 22.335 47.7937 22.615 47.4437Z" fill="url(#paint0_linear_97_181)"/>
<path d="M83.1849 76.5338L85.645 73.4537L61.775 73.3537C59.975 72.9337 60.5449 71.2238 61.2249 70.7838L85.895 70.7137L83.265 67.9437C82.965 67.6337 83.2649 66.6037 83.5849 66.3737C83.9549 66.1137 85.045 66.0438 85.415 66.4038L90.115 71.0637C90.555 71.5037 90.7249 72.5238 90.3149 72.9338L85.5549 77.6237C85.2749 77.9037 84.3649 78.0838 83.9849 78.0538C83.5449 78.0238 82.9049 76.8838 83.1849 76.5338Z" fill="url(#paint1_linear_97_181)"/>
<path d="M139.905 40.5439C140.725 39.7439 141.995 39.8039 142.785 40.5439C143.315 41.0439 143.815 42.5038 143.065 43.2438L123.255 62.8538L119.935 65.9438C119.305 66.5238 119.045 67.5638 119.385 68.2538C119.665 68.8238 121.185 69.3238 121.805 68.8839C123.425 67.7239 124.665 66.3538 125.975 64.8638L128.265 62.7639L141.695 49.7739C144.405 61.0639 139.455 72.4938 129.225 78.2338C122.355 82.0838 113.705 82.4338 106.405 79.3238C100.455 76.7838 95.9249 72.1939 93.2049 66.4139C87.9649 55.2939 92.155 42.2839 102.155 35.4139C111.695 28.8539 126.315 29.8538 134.605 38.0738C134.845 38.3138 135.155 39.2439 134.855 39.5439L114.865 59.5139C111.245 57.2739 108.395 50.3238 104.915 53.2338C104.195 53.8338 103.495 54.7338 103.525 55.6238C103.555 56.5138 104.375 57.2139 105.045 57.8839L111.885 64.8438C112.755 65.7238 114.075 65.8838 114.975 65.0038L129.715 50.4938L139.905 40.5239V40.5439Z" fill="url(#paint2_linear_97_181)"/>
<path d="M74.3349 36.3038C73.8249 31.8938 72.135 27.9338 68.895 25.3038C62.785 20.3438 54.315 21.0538 49.245 27.0538C47.495 29.1238 46.395 31.6737 45.375 34.2537C43.505 38.9837 40.135 42.4937 34.885 43.3337C34.275 43.4337 33.345 42.7038 33.275 42.1538C33.195 41.5638 33.6649 40.6637 34.3149 40.4637C40.3449 38.6437 41.6949 35.4138 43.8049 29.9138C46.0549 24.0438 51.1049 20.1037 56.8149 19.0937C63.2649 17.9537 69.535 20.2337 73.415 25.4437C76.945 30.1837 78.2949 36.0837 77.7049 42.0037C76.7849 51.2637 71.835 59.2038 64.675 64.9238C63.385 65.9538 57.2349 70.8037 56.0549 68.8137C55.6949 68.2037 55.965 66.8637 56.675 66.4637C61.285 63.8737 65.335 60.7937 68.505 56.5937C72.905 50.7537 75.2049 43.7238 74.3449 36.2938L74.3349 36.3038Z" fill="url(#paint3_linear_97_181)"/>
<path d="M81.015 35.1237C79.345 23.3737 70.0649 14.6037 57.8249 15.5737C50.7049 16.1337 44.4949 20.5437 41.3249 26.8437L38.265 32.9238C37.005 35.4438 33.855 37.7838 32.465 36.5338C32.165 36.2638 32.225 35.0438 32.655 34.6838C38.175 30.0538 35.9349 26.3238 42.9349 19.2938C50.5849 11.6138 62.4849 10.1037 71.9349 15.6237C79.1949 19.8637 83.455 27.3737 84.265 35.7537C84.895 42.2037 83.6649 48.4537 80.9549 54.3437C80.695 54.9137 79.535 55.1738 79.015 55.0438C78.495 54.9138 77.9149 53.7437 78.1849 53.1137C80.6549 47.3737 81.905 41.3537 81.025 35.1237H81.015Z" fill="url(#paint4_linear_97_181)"/>
<path d="M67.475 35.3938C66.935 32.6838 65.355 30.5738 63.485 29.6238C61.005 28.3738 57.935 28.2738 55.805 29.7738C53.675 31.2738 52.545 33.6138 51.815 36.0238C48.215 47.8938 35.575 51.1838 35.255 48.2638C35.125 47.1138 35.7651 46.5438 36.9051 46.3338C42.6051 45.2338 46.975 40.9838 48.645 35.4038C49.655 32.0338 51.125 28.8937 54.235 26.9537C57.715 24.7937 62.535 24.8338 65.835 27.3338C69.285 29.9438 70.935 34.0438 71.055 38.2738C71.405 50.8638 61.735 61.4538 50.145 65.2838C49.605 65.4638 48.535 64.7938 48.475 64.3538C48.395 63.7938 48.7751 62.8437 49.4251 62.5637C55.1951 60.0537 60.335 56.5637 63.845 51.3237C67.005 46.5937 68.595 41.0338 67.475 35.3938Z" fill="url(#paint5_linear_97_181)"/>
<path d="M49.915 54.9738C61.145 49.0638 62.9249 36.3138 60.0849 35.7638C57.6249 35.2938 57.8049 39.5638 56.2449 42.8638C54.2049 47.1638 50.8049 50.6938 46.5649 52.8438C45.0949 53.5938 38.7249 56.4838 38.0749 54.2238C37.3649 51.7638 40.7749 52.2838 45.2549 49.9938C49.1649 47.9938 52.3449 44.7338 53.7549 40.5338L55.4449 35.4838C56.1149 33.4938 57.8949 32.4738 59.7249 32.5138C61.6949 32.5538 63.4449 33.6738 64.0749 35.7838C64.5949 37.5338 64.6449 39.4738 64.2149 41.3438C62.8049 47.5838 59.025 52.8138 53.675 56.3238C51.895 57.4938 42.745 62.5938 41.885 59.9538C41.565 58.9638 41.9949 58.1738 42.9749 57.8638C45.4149 57.0838 47.655 56.1738 49.925 54.9738H49.915Z" fill="url(#paint6_linear_97_181)"/>
<path d="M78.6451 16.9338C70.0451 8.15384 56.4651 6.60372 45.7951 13.0637C42.3351 15.1537 39.515 17.9938 37.305 21.3538C36.475 22.6138 34.7551 26.8538 32.6751 25.6038C30.9651 24.5738 33.4551 21.3038 34.1551 20.2738C41.6051 9.3838 53.2851 3.73382 66.4151 6.66382C72.7251 8.07382 77.935 11.3938 82.335 15.9238C83.225 16.8338 84.4751 17.6338 84.4251 19.1238C84.4051 19.6338 83.435 20.3938 82.945 20.4038C82.415 20.4238 81.5851 19.9338 81.1651 19.4938L78.6551 16.9338H78.6451Z" fill="url(#paint7_linear_97_181)"/>
<path d="M73.425 6.17389C66.675 3.46389 63.915 2.48388 56.525 3.04388C52.805 3.32388 49.2849 4.48382 45.9449 6.10382C44.8149 6.65382 39.925 9.95382 39.405 7.35382C39.015 5.41382 42.245 4.46389 43.545 3.80389C45.055 3.03389 46.5849 2.2938 48.1849 1.7038C51.6149 0.443796 55.255 0.103854 58.885 0.0138541C62.025 -0.0661459 65.185 0.193805 68.235 0.963805C69.765 1.35381 76.4349 2.92383 75.4449 5.36383C75.1549 6.07383 74.135 6.44388 73.425 6.16388V6.17389Z" fill="url(#paint8_linear_97_181)"/>
<path d="M87.385 23.8638C88.545 25.1938 89.155 28.3738 89.435 29.3438C89.845 30.7638 91.255 34.6737 89.725 35.8137C89.485 35.9937 89.185 36.0638 88.895 36.1038C86.855 36.3338 87.055 33.0138 86.735 31.5938C86.385 30.0838 85.965 28.5738 85.475 27.1038C85.105 26.0238 84.215 24.4337 85.465 23.5737C86.235 23.0437 86.875 23.2638 87.395 23.8638H87.385Z" fill="url(#paint9_linear_97_181)"/>
<path d="M86.775 61.1438H73.645C73.085 61.1438 72.6249 60.1538 72.6949 59.6638C72.7949 58.9238 73.525 58.4838 74.355 58.4838L86.9349 58.5038C87.4049 58.5038 88.1349 59.2538 88.1949 59.6838C88.2749 60.2138 87.565 61.1338 86.765 61.1338L86.775 61.1438Z" fill="url(#paint10_linear_97_181)"/>
<path d="M90.135 41.9339C90.135 43.6739 89.6249 50.6739 87.1949 49.9039C86.6549 49.7339 85.995 48.8738 86.125 48.2438L87.505 41.6739C87.955 41.1639 90.135 41.2439 90.135 41.9339Z" fill="url(#paint11_linear_97_181)"/>
<defs>
<linearGradient id="paint0_linear_97_181" x1="0.00501511" y1="43.0238" x2="29.975" y2="43.0238" gradientUnits="userSpaceOnUse">
<stop stop-color="#6FA8FF"/>
<stop offset="1" stop-color="#C77CFF"/>
</linearGradient>
<linearGradient id="paint1_linear_97_181" x1="60.575" y1="72.1038" x2="90.5449" y2="72.1038" gradientUnits="userSpaceOnUse">
<stop stop-color="#6FA8FF"/>
<stop offset="1" stop-color="#C77CFF"/>
</linearGradient>
<linearGradient id="paint2_linear_97_181" x1="90.9349" y1="56.2738" x2="143.445" y2="56.2738" gradientUnits="userSpaceOnUse">
<stop stop-color="#6FA8FF"/>
<stop offset="1" stop-color="#C77CFF"/>
</linearGradient>
<linearGradient id="paint3_linear_97_181" x1="33.255" y1="44.0537" x2="77.8349" y2="44.0537" gradientUnits="userSpaceOnUse">
<stop stop-color="#6FA8FF"/>
<stop offset="1" stop-color="#C77CFF"/>
</linearGradient>
<linearGradient id="paint4_linear_97_181" x1="32.275" y1="33.6937" x2="84.415" y2="33.6937" gradientUnits="userSpaceOnUse">
<stop stop-color="#6FA8FF"/>
<stop offset="1" stop-color="#C77CFF"/>
</linearGradient>
<linearGradient id="paint5_linear_97_181" x1="35.245" y1="45.3638" x2="71.055" y2="45.3638" gradientUnits="userSpaceOnUse">
<stop stop-color="#6FA8FF"/>
<stop offset="1" stop-color="#C77CFF"/>
</linearGradient>
<linearGradient id="paint6_linear_97_181" x1="37.9849" y1="46.6038" x2="64.4949" y2="46.6038" gradientUnits="userSpaceOnUse">
<stop stop-color="#6FA8FF"/>
<stop offset="1" stop-color="#C77CFF"/>
</linearGradient>
<linearGradient id="paint7_linear_97_181" x1="32.0851" y1="15.8538" x2="84.4151" y2="15.8538" gradientUnits="userSpaceOnUse">
<stop stop-color="#6FA8FF"/>
<stop offset="1" stop-color="#C77CFF"/>
</linearGradient>
<linearGradient id="paint8_linear_97_181" x1="39.375" y1="4.17384" x2="75.5449" y2="4.17384" gradientUnits="userSpaceOnUse">
<stop stop-color="#6FA8FF"/>
<stop offset="1" stop-color="#C77CFF"/>
</linearGradient>
<linearGradient id="paint9_linear_97_181" x1="84.805" y1="29.6938" x2="90.415" y2="29.6938" gradientUnits="userSpaceOnUse">
<stop stop-color="#6FA8FF"/>
<stop offset="1" stop-color="#C77CFF"/>
</linearGradient>
<linearGradient id="paint10_linear_97_181" x1="72.6849" y1="59.8238" x2="88.2049" y2="59.8238" gradientUnits="userSpaceOnUse">
<stop stop-color="#6FA8FF"/>
<stop offset="1" stop-color="#C77CFF"/>
</linearGradient>
<linearGradient id="paint11_linear_97_181" x1="86.105" y1="45.6539" x2="90.135" y2="45.6539" gradientUnits="userSpaceOnUse">
<stop stop-color="#6FA8FF"/>
<stop offset="1" stop-color="#C77CFF"/>
</linearGradient>
</defs>
</svg>
