<svg width="98" height="86" viewBox="0 0 98 86" fill="none" xmlns="http://www.w3.org/2000/svg">
<path d="M92.0245 34.45C92.0245 34.45 91.9845 34.49 91.9645 34.51C91.9845 34.49 92.0045 34.47 92.0245 34.45Z" fill="url(#paint0_linear_97_202)"/>
<path d="M62.0346 45.1L62.0546 30.67C62.3646 28.88 63.6745 27.54 65.5945 27.54C63.6745 27.54 62.3746 28.87 62.0546 30.67L62.0346 45.1C62.0346 47.15 63.5545 48.59 65.6045 48.59C63.5545 48.59 62.0246 47.15 62.0346 45.1Z" fill="white"/>
<path d="M73.2445 30.72C73.5145 30.77 73.7645 30.8399 74.0145 30.9399C73.7745 30.8399 73.5145 30.77 73.2445 30.72Z" fill="url(#paint1_linear_97_202)"/>
<path d="M75.0245 36.8199C74.8745 36.9699 74.7045 37.09 74.5345 37.21C74.7045 37.1 74.8745 36.9699 75.0245 36.8199Z" fill="url(#paint2_linear_97_202)"/>
<path d="M41.1645 13.6C40.9345 13.36 40.1745 13.2 39.7645 13.2L31.0345 13.26C30.2445 13.26 29.8044 13.83 29.8344 14.6C29.8144 13.83 30.2445 13.26 31.0345 13.26L39.7645 13.2C40.1745 13.2 40.9345 13.36 41.1645 13.6C41.3045 13.75 41.3645 14.09 41.3745 14.41C41.3745 14.08 41.3145 13.74 41.1645 13.59V13.6Z" fill="url(#paint3_linear_97_202)"/>
<path d="M66.5246 44.6899C66.0446 42.9399 66.5146 40.6301 67.7646 39.4301C66.5146 40.6301 66.0446 42.9499 66.5246 44.6899C66.5846 44.9099 67.2246 44.98 67.5046 44.98C67.2246 44.98 66.5846 44.9199 66.5246 44.6899Z" fill="url(#paint4_linear_97_202)"/>
<path d="M76.1846 34.11C76.1646 33.31 75.9145 32.62 75.5045 32.08C75.9145 32.63 76.1746 33.31 76.1846 34.11Z" fill="url(#paint5_linear_97_202)"/>
<path d="M76.0446 35.17C75.9846 35.39 75.8946 35.6 75.8046 35.8C75.9046 35.6 75.9846 35.39 76.0446 35.17Z" fill="url(#paint6_linear_97_202)"/>
<path d="M53.6945 10.17C53.8545 6.62 56.9445 4.68992 60.2645 4.83992C56.9545 4.68992 53.8645 6.63 53.6945 10.17Z" fill="url(#paint7_linear_97_202)"/>
<path d="M63.1445 3.16003C66.0145 4.30003 68.2145 6.73002 68.3145 9.90002L68.4645 14.41C68.5345 16.47 69.6145 18.29 71.2845 19.41C71.6745 19.67 72.0246 20.21 72.0546 20.62C72.1446 21.79 70.3245 22.0699 69.4445 22.0699C70.3145 22.0699 72.1446 21.78 72.0546 20.62C72.0246 20.21 71.6745 19.67 71.2845 19.41C69.6145 18.29 68.5345 16.47 68.4645 14.41L68.3145 9.90002C68.2145 6.72002 66.0245 4.30003 63.1445 3.16003C62.8445 1.35003 61.6045 0.03 59.8945 0C61.5945 0.03 62.8445 1.35003 63.1345 3.16003H63.1445Z" fill="url(#paint8_linear_97_202)"/>
<path d="M53.5345 42.97C53.5345 43.28 54.0545 43.41 54.4845 43.4C54.0545 43.4 53.5345 43.28 53.5345 42.97Z" fill="url(#paint9_linear_97_202)"/>
<path d="M54.5845 24.47C54.0445 24.47 53.4945 24.9101 53.4945 25.5301C53.4945 24.9101 54.0345 24.46 54.5845 24.47Z" fill="url(#paint10_linear_97_202)"/>
<path d="M54.9945 43.3C55.2645 43.15 55.5945 42.6199 55.5945 42.0699C55.5945 42.6199 55.2645 43.14 54.9945 43.3Z" fill="url(#paint11_linear_97_202)"/>
<path d="M54.5845 24.47C54.9745 24.47 55.6145 25.03 55.6145 25.55C55.6145 25.03 54.9745 24.48 54.5845 24.47Z" fill="url(#paint12_linear_97_202)"/>
<path d="M60.4346 24.6899C61.7346 24.4099 62.6145 23.41 63.2445 22.12C62.6245 23.4 61.7346 24.4099 60.4346 24.6899Z" fill="url(#paint13_linear_97_202)"/>
<path d="M82.4445 36.77C81.8245 36.77 81.2745 37.13 81.2745 37.74C81.2745 37.13 81.8145 36.77 82.4445 36.77Z" fill="url(#paint14_linear_97_202)"/>
<path d="M81.3046 34.02C81.5046 34.27 82.0446 34.54 82.4246 34.54H91.9445V34.53H82.4246C82.0346 34.53 81.4946 34.28 81.3046 34.02C81.1446 33.81 81.1946 33.17 81.4046 32.85C81.1946 33.16 81.1446 33.81 81.3046 34.02Z" fill="url(#paint15_linear_97_202)"/>
<path d="M92.2745 37.73C92.2745 37.65 92.2745 37.57 92.2445 37.49C92.2645 37.57 92.2745 37.65 92.2745 37.73Z" fill="url(#paint16_linear_97_202)"/>
<path d="M83.9545 59.2299C83.4245 58.8699 82.6345 59.12 82.0845 59.65L78.6646 62.9599L67.5346 74.05C67.1346 74.45 66.6246 74.92 66.1846 74.91C65.8146 74.91 65.1645 74.56 64.8845 74.28L60.0446 69.38C59.4446 68.78 60.1945 67.68 60.6145 67.27C61.0345 66.86 62.1645 66.3699 62.7345 66.9399L66.8946 71.0699L79.1345 59.04C76.6745 56.22 73.3446 54.95 69.6846 54.54C61.3046 53.61 53.7745 59.23 52.4645 67.62C51.6945 72.59 53.6146 77.4699 57.1846 80.9599C60.3946 84.0999 64.4845 85.33 68.9645 85.18C73.5645 85.03 77.5345 82.8199 80.3745 79.1999C83.3845 75.3599 84.7746 70.47 83.2646 65.53L71.9146 76.78C71.5946 77.1 70.7346 77.0199 70.4146 76.8199C70.1446 76.6399 69.8545 75.7199 70.1045 75.4699L84.2145 61.4C84.8745 60.75 84.6246 59.6899 83.9346 59.2299H83.9545Z" fill="url(#paint17_linear_97_202)"/>
<path d="M32.3945 52.38C34.8845 52.26 35.9645 51.93 37.8445 53.73L41.7946 57.51C42.6146 58.29 43.8245 59.01 45.1545 59.01L52.3245 59.04C52.9445 59.04 53.4745 58.32 53.4045 57.79C53.3545 57.39 52.7845 56.8199 52.2845 56.8099L44.3545 56.77C43.3245 56 42.2845 54.9199 41.3845 54.0599L39.4346 52.16C36.7946 49.59 35.1745 50.42 32.3445 50.2C32.5745 50.51 32.7145 50.8999 32.7145 51.3199C32.7145 51.7099 32.5945 52.07 32.4045 52.37L32.3945 52.38Z" fill="url(#paint18_linear_97_202)"/>
<path d="M50.8345 80.14L20.2445 80.09C17.5745 80.09 16.2646 77.25 16.2746 75.04L16.3046 52.27L29.1546 52.3C28.9846 52.01 28.8846 51.68 28.8846 51.33C28.8846 50.98 28.9946 50.6199 29.1746 50.3199L16.2946 50.3L16.3245 44.83L42.4745 44.8099C42.4045 44.6199 42.3745 44.41 42.3745 44.2C42.3745 43.7299 42.5445 43.3 42.8245 42.96H16.3145L16.2445 16.1801C16.2445 13.2901 17.5245 11.1199 20.5745 10.5699L48.4146 10.52C49.1546 10.52 49.6745 9.84005 49.5945 9.30005C49.5345 8.87005 49.0246 8.27002 48.4246 8.27002L20.9745 8.30005C16.7445 8.30005 13.9246 11.94 13.9346 15.9L13.9845 42.97L1.84452 42.9301C1.05452 42.9701 1.00455 43.7 1.00455 43.7C0.784554 44.65 1.73453 44.8199 1.73453 44.8199H13.9645L14.0546 50.3099L12.9945 50.34L3.84452 50.3199L0.734535 50.34C0.734535 50.34 0.0845545 50.55 0.00455454 51.09C0.00455454 51.09 -0.0753917 51.99 0.434608 52.16H7.76456L13.9346 52.26L14.1145 76.15C14.1445 79.56 17.3746 82.39 20.6746 82.4L51.0945 82.45C51.7245 82.45 52.2046 81.67 52.1346 81.23C52.0346 80.61 51.5645 80.14 50.8445 80.14H50.8345Z" fill="url(#paint19_linear_97_202)"/>
<path d="M45.0145 45.97C45.1845 46.01 45.3345 46.06 45.4645 46.14C49.4245 48.67 51.9145 54.56 56.5045 52.91C57.6145 52.51 58.5445 51.45 58.1345 50.25C57.9345 49.67 57.1345 49.38 56.5145 49.48C55.9645 49.56 55.5645 50.04 55.1545 50.66C54.7445 51.28 53.6145 50.87 53.0845 50.34L47.3145 44.46C47.3145 44.46 46.8345 44.15 46.1445 43.8C46.1745 43.93 46.1846 44.06 46.1846 44.2C46.1846 45 45.6945 45.68 45.0045 45.97H45.0145Z" fill="url(#paint20_linear_97_202)"/>
<path d="M65.6045 48.58L94.3145 48.5699L65.6045 48.58Z" fill="url(#paint21_linear_97_202)"/>
<path d="M94.0145 27.58C95.8945 27.58 97.2645 29.1801 97.2645 30.9301V45C97.2445 46.52 96.3445 48.5699 94.3145 48.5699C96.3445 48.5699 97.2445 46.52 97.2445 45V30.9301C97.2545 29.1901 95.8845 27.58 94.0045 27.58H94.0145Z" fill="black"/>
<path d="M97.2545 45V30.9301C97.2645 29.1901 95.8945 27.59 94.0145 27.58L65.5945 27.54C63.6745 27.54 62.3646 28.87 62.0546 30.67L62.0345 45.1C62.0345 47.14 63.5545 48.59 65.6045 48.59H94.3145V48.58C96.3445 48.58 97.2445 46.53 97.2445 45.01L97.2545 45ZM70.0546 31.5699C70.4646 31.1899 70.9745 30.91 71.5845 30.77C72.1545 30.64 72.7245 30.62 73.2545 30.72C73.5245 30.77 73.7745 30.8399 74.0245 30.9399C74.1445 30.9899 74.2645 31.05 74.3845 31.11C74.6145 31.24 74.8345 31.3799 75.0245 31.5599C75.2045 31.7099 75.3645 31.89 75.5045 32.08C75.9145 32.63 76.1746 33.31 76.1846 34.11C76.1846 34.48 76.1446 34.83 76.0546 35.16C75.9946 35.38 75.9045 35.59 75.8145 35.79C75.6145 36.18 75.3445 36.5299 75.0345 36.8199C74.8845 36.9699 74.7146 37.09 74.5446 37.21C74.1146 37.49 73.6346 37.67 73.1646 37.73C71.1546 37.97 69.5345 36.72 69.1245 35.04C68.8045 33.71 69.1646 32.41 70.0546 31.58V31.5699ZM78.3545 44.9399L67.5045 44.99C67.2245 44.99 66.5845 44.92 66.5245 44.7C66.0445 42.95 66.5145 40.6399 67.7645 39.4399C68.1845 39.0399 68.6845 38.76 69.2745 38.66C71.3045 38.33 73.6146 38.45 75.6846 38.61C78.3546 38.82 79.4945 42.8799 78.3745 44.9399H78.3545ZM81.2745 37.74C81.2745 37.13 81.8145 36.77 82.4445 36.77H91.1945C91.4345 36.77 91.6445 36.8301 91.8245 36.9301C92.0445 37.0601 92.1945 37.25 92.2545 37.5C92.2745 37.58 92.2845 37.65 92.2845 37.74C92.2745 38.31 91.8145 38.66 91.1945 38.66L82.4445 38.6801C81.8245 38.6801 81.2845 38.32 81.2845 37.75L81.2745 37.74ZM91.1846 42.8099L82.4445 42.79C81.7945 42.79 81.3046 42.47 81.3046 41.84C81.3046 41.28 81.8245 40.87 82.4445 40.87L91.1945 40.91C91.3445 40.91 91.4945 40.94 91.6245 40.98C92.0145 41.12 92.2745 41.44 92.2845 41.85C92.2845 42.44 91.8245 42.8199 91.1945 42.8199L91.1846 42.8099Z" fill="url(#paint22_linear_97_202)"/>
<path d="M48.1646 19.55C47.8046 19.79 47.5746 20.5699 47.6746 20.9399C47.7546 21.2599 48.3445 21.84 48.7045 21.85L56.6945 22.15C57.2445 23.62 58.3346 24.77 59.7946 24.77C58.3346 24.77 57.2445 23.61 56.6945 22.15L48.7045 21.85C48.3445 21.84 47.7546 21.2599 47.6746 20.9399C47.5746 20.5699 47.8046 19.79 48.1646 19.55C49.9446 18.35 51.1845 16.6 51.3145 14.4L51.5546 10.1801C51.7446 6.91005 53.8346 4.28 56.8846 3.13C56.8246 1.36 57.8645 0.15001 59.5645 0.0100098C59.6845 0.0100098 59.7946 0 59.9046 0C59.7946 0 59.6746 9.76585e-06 59.5546 0.0100098C57.8546 0.15001 56.8146 1.35 56.8746 3.13C53.8246 4.28 51.7346 6.91005 51.5446 10.1801L51.3046 14.4C51.1846 16.6 49.9446 18.35 48.1546 19.55H48.1646Z" fill="url(#paint23_linear_97_202)"/>
<path d="M56.8746 3.13C53.8246 4.28 51.7346 6.91005 51.5446 10.1801L51.3046 14.4C51.1746 16.6 49.9346 18.35 48.1546 19.55C47.7946 19.79 47.5646 20.5699 47.6646 20.9399C47.7446 21.2599 48.3345 21.83 48.6945 21.85L56.6846 22.15C57.2346 23.62 58.3246 24.76 59.7846 24.77C59.9946 24.77 60.2046 24.75 60.4346 24.7C61.7346 24.42 62.6145 23.42 63.2445 22.13L69.4545 22.08C70.3245 22.08 72.1545 21.79 72.0645 20.63C72.0345 20.22 71.6846 19.68 71.2946 19.42C69.6246 18.3 68.5445 16.48 68.4745 14.42L68.3245 9.91003C68.2245 6.73003 66.0346 4.31004 63.1546 3.17004C62.8546 1.36004 61.6146 0.0400098 59.9146 0.0100098C59.8046 0.0100098 59.6845 0.0100195 59.5745 0.0200195C57.8745 0.16002 56.8346 1.36001 56.8946 3.14001L56.8746 3.13ZM60.2646 4.83997C62.7846 4.94997 64.9645 5.97994 65.8245 8.55994C67.0745 12.2799 65.0245 15.2199 68.4845 19.8199L51.2546 19.86C52.6046 18.03 53.4146 16.24 53.5146 14.1L53.6945 10.1899C53.8545 6.63994 56.9446 4.70999 60.2646 4.85999V4.83997Z" fill="url(#paint24_linear_97_202)"/>
<path d="M44.9046 65.6099L46.2145 66.62C46.8945 67.14 48.1546 66.9399 48.7446 66.4899C49.3346 66.0399 49.7346 65.0399 49.4946 64.2299C49.2246 63.3199 48.2745 62.7499 47.5845 62.6899C46.5945 62.6099 45.8846 62.9299 45.2346 63.8599L27.8946 63.93C27.3346 63.93 26.9446 64.35 26.9246 64.76C26.8946 65.33 27.2746 65.5999 28.0446 65.5999H44.9046V65.6099Z" fill="url(#paint25_linear_97_202)"/>
<path d="M55.6145 25.55L55.6045 42.0699L55.6145 25.55Z" fill="url(#paint26_linear_97_202)"/>
<path d="M53.4945 25.54L53.5345 42.97L53.4945 25.54Z" fill="url(#paint27_linear_97_202)"/>
<path d="M54.4845 43.4C54.6945 43.4 54.8845 43.3699 54.9845 43.3099C54.9845 43.3099 54.9845 43.3099 54.9945 43.3099C54.9945 43.3099 54.9945 43.3099 54.9845 43.3099C54.8845 43.3599 54.6945 43.39 54.4845 43.4Z" fill="url(#paint28_linear_97_202)"/>
<path d="M54.5845 24.47C54.0445 24.47 53.4945 24.91 53.4945 25.53L53.5345 42.96C53.5345 43.27 54.0545 43.4 54.4845 43.39C54.6945 43.39 54.8745 43.36 54.9845 43.3C54.9845 43.3 54.9845 43.3 54.9945 43.3C55.2645 43.15 55.5945 42.6199 55.5945 42.0699L55.6045 25.54C55.6045 25.02 54.9645 24.47 54.5745 24.46L54.5845 24.47Z" fill="url(#paint29_linear_97_202)"/>
<path d="M31.0546 15.58C30.4046 15.58 29.8445 15.07 29.8245 14.6C29.8345 15.07 30.4046 15.58 31.0546 15.58Z" fill="url(#paint30_linear_97_202)"/>
<path d="M40.0145 15.6C40.5245 15.6 41.2345 15.33 41.3145 14.96C41.2345 15.33 40.5145 15.61 40.0145 15.61V15.6Z" fill="url(#paint31_linear_97_202)"/>
<path d="M39.7645 13.2L31.0345 13.26C30.2445 13.26 29.8044 13.83 29.8344 14.6C29.8444 15.07 30.4144 15.58 31.0644 15.58L40.0245 15.6C40.5245 15.6 41.2444 15.33 41.3244 14.96C41.3544 14.81 41.3745 14.62 41.3745 14.42C41.3745 14.09 41.3145 13.76 41.1645 13.61C40.9345 13.37 40.1745 13.21 39.7645 13.21V13.2Z" fill="url(#paint32_linear_97_202)"/>
<path d="M75.6746 38.6099C73.6046 38.4499 71.2946 38.33 69.2646 38.65C68.6746 38.74 68.1746 39.02 67.7646 39.42C66.5146 40.62 66.0546 42.94 66.5246 44.68C66.5846 44.9 67.2246 44.9699 67.5046 44.9699L78.3545 44.93C79.4745 42.88 78.3446 38.8199 75.6646 38.6099H75.6746Z" fill="white"/>
<path d="M75.6746 38.6099C73.5946 38.4499 71.2945 38.33 69.2645 38.65C68.6745 38.74 68.1745 39.02 67.7545 39.43C68.1745 39.03 68.6745 38.75 69.2545 38.66C71.2845 38.33 73.5946 38.4499 75.6646 38.6099H75.6746Z" fill="url(#paint33_linear_97_202)"/>
<path d="M75.6746 38.61C78.3546 38.82 79.4845 42.8801 78.3645 44.9301C79.4845 42.8801 78.3546 38.81 75.6746 38.61Z" fill="url(#paint34_linear_97_202)"/>
<path d="M69.1145 35.04C69.5245 36.73 71.1445 37.98 73.1545 37.73C73.6245 37.67 74.1045 37.49 74.5345 37.21C74.7045 37.1 74.8745 36.9699 75.0245 36.8199C75.3345 36.5299 75.6046 36.19 75.8046 35.79C75.9046 35.59 75.9846 35.38 76.0446 35.16C76.1346 34.83 76.1846 34.48 76.1746 34.11C76.1546 33.31 75.9045 32.6199 75.4945 32.0799C75.3545 31.8899 75.1945 31.7099 75.0145 31.5599C74.8145 31.3899 74.6045 31.24 74.3745 31.11C74.2545 31.05 74.1445 30.9899 74.0145 30.9399C73.7745 30.8399 73.5145 30.77 73.2445 30.72C72.7145 30.62 72.1445 30.64 71.5745 30.77C70.9645 30.91 70.4546 31.1999 70.0446 31.5699C69.1546 32.3999 68.7845 33.7 69.1145 35.03V35.04Z" fill="white"/>
<path d="M74.3745 31.11C74.6045 31.24 74.8245 31.3799 75.0145 31.5599C74.8145 31.3899 74.6045 31.24 74.3745 31.11Z" fill="url(#paint35_linear_97_202)"/>
<path d="M70.0546 31.5699C69.1646 32.3999 68.7945 33.7 69.1245 35.03C68.8045 33.7 69.1646 32.3999 70.0546 31.5699Z" fill="url(#paint36_linear_97_202)"/>
<path d="M91.9545 34.52C91.9545 34.52 91.9545 34.52 91.9645 34.51C91.9645 34.51 91.9645 34.52 91.9545 34.53V34.52Z" fill="url(#paint37_linear_97_202)"/>
<path d="M82.4346 38.67L91.1846 38.65C91.8046 38.65 92.2645 38.3 92.2745 37.73C92.2745 37.65 92.2745 37.57 92.2445 37.49C92.1845 37.25 92.0245 37.05 91.8145 36.92C91.6345 36.82 91.4246 36.76 91.1846 36.76H82.4346C81.8146 36.76 81.2645 37.12 81.2645 37.73C81.2645 38.31 81.8046 38.66 82.4246 38.66L82.4346 38.67Z" fill="white"/>
<path d="M92.2445 37.49C92.1845 37.25 92.0245 37.05 91.8145 36.92C92.0345 37.05 92.1845 37.25 92.2445 37.49Z" fill="url(#paint38_linear_97_202)"/>
<path d="M82.4346 38.67C81.8146 38.67 81.2745 38.31 81.2745 37.74C81.2745 38.32 81.8146 38.67 82.4346 38.67Z" fill="url(#paint39_linear_97_202)"/>
<path d="M91.1846 38.65C91.8046 38.65 92.2645 38.3 92.2745 37.73C92.2645 38.29 91.8046 38.65 91.1846 38.65Z" fill="url(#paint40_linear_97_202)"/>
<path d="M91.6245 40.98C91.4945 40.93 91.3445 40.91 91.1945 40.91L82.4445 40.87C81.8245 40.87 81.3046 41.28 81.3046 41.84C81.3046 42.47 81.7945 42.79 82.4445 42.79L91.1846 42.8099C91.8146 42.8099 92.2845 42.43 92.2745 41.84C92.2745 41.43 92.0045 41.11 91.6145 40.97L91.6245 40.98Z" fill="white"/>
<path d="M91.1846 42.8099C91.8146 42.8099 92.2845 42.44 92.2745 41.84C92.2745 42.43 91.8146 42.8099 91.1846 42.8099Z" fill="url(#paint41_linear_97_202)"/>
<path d="M91.1945 40.91C91.3445 40.91 91.4945 40.94 91.6245 40.98C91.4945 40.93 91.3445 40.91 91.1945 40.91Z" fill="url(#paint42_linear_97_202)"/>
<path d="M60.2645 4.83997C56.9545 4.68997 53.8645 6.63004 53.6945 10.17L53.5145 14.08C53.4145 16.22 52.6045 18.01 51.2545 19.84L68.4845 19.8C65.0245 15.2 67.0745 12.26 65.8245 8.54004C64.9645 5.96004 62.7845 4.93996 60.2645 4.82996V4.83997Z" fill="white"/>
<path d="M51.2545 19.85L68.4845 19.8099L51.2545 19.85Z" fill="url(#paint43_linear_97_202)"/>
<path d="M44.2045 46.73C45.6735 46.73 46.8645 45.539 46.8645 44.0699C46.8645 42.6009 45.6735 41.41 44.2045 41.41C42.7354 41.41 41.5446 42.6009 41.5446 44.0699C41.5446 45.539 42.7354 46.73 44.2045 46.73Z" fill="url(#paint44_linear_97_202)"/>
<path d="M30.7545 53.91C32.2236 53.91 33.4146 52.7191 33.4146 51.25C33.4146 49.7809 32.2236 48.59 30.7545 48.59C29.2854 48.59 28.0945 49.7809 28.0945 51.25C28.0945 52.7191 29.2854 53.91 30.7545 53.91Z" fill="url(#paint45_linear_97_202)"/>
<path d="M47.4745 67.27C48.9436 67.27 50.1345 66.0791 50.1345 64.61C50.1345 63.1409 48.9436 61.95 47.4745 61.95C46.0054 61.95 44.8145 63.1409 44.8145 64.61C44.8145 66.0791 46.0054 67.27 47.4745 67.27Z" fill="url(#paint46_linear_97_202)"/>
<path d="M82.4346 34.58L91.1846 34.5599C91.8046 34.5599 92.2645 34.21 92.2745 33.64C92.2745 33.56 92.2745 33.48 92.2445 33.4C92.1845 33.16 92.0245 32.96 91.8145 32.83C91.6345 32.73 91.4246 32.67 91.1846 32.67H82.4346C81.8146 32.67 81.2645 33.03 81.2645 33.64C81.2645 34.22 81.8046 34.5699 82.4246 34.5699L82.4346 34.58Z" fill="white"/>
<defs>
<linearGradient id="paint0_linear_97_202" x1="91.9745" y1="34.48" x2="92.0245" y2="34.48" gradientUnits="userSpaceOnUse">
<stop stop-color="#6FA8FF"/>
<stop offset="1" stop-color="#C77CFF"/>
</linearGradient>
<linearGradient id="paint1_linear_97_202" x1="73.2445" y1="30.83" x2="74.0245" y2="30.83" gradientUnits="userSpaceOnUse">
<stop stop-color="#6FA8FF"/>
<stop offset="1" stop-color="#C77CFF"/>
</linearGradient>
<linearGradient id="paint2_linear_97_202" x1="74.5345" y1="37.02" x2="75.0245" y2="37.02" gradientUnits="userSpaceOnUse">
<stop stop-color="#6FA8FF"/>
<stop offset="1" stop-color="#C77CFF"/>
</linearGradient>
<linearGradient id="paint3_linear_97_202" x1="29.8244" y1="13.9" x2="41.3645" y2="13.9" gradientUnits="userSpaceOnUse">
<stop stop-color="#6FA8FF"/>
<stop offset="1" stop-color="#C77CFF"/>
</linearGradient>
<linearGradient id="paint4_linear_97_202" x1="66.3346" y1="42.21" x2="78.3545" y2="42.21" gradientUnits="userSpaceOnUse">
<stop stop-color="#6FA8FF"/>
<stop offset="1" stop-color="#C77CFF"/>
</linearGradient>
<linearGradient id="paint5_linear_97_202" x1="75.5045" y1="33.1" x2="76.1846" y2="33.1" gradientUnits="userSpaceOnUse">
<stop stop-color="#6FA8FF"/>
<stop offset="1" stop-color="#C77CFF"/>
</linearGradient>
<linearGradient id="paint6_linear_97_202" x1="75.8046" y1="35.48" x2="76.0446" y2="35.48" gradientUnits="userSpaceOnUse">
<stop stop-color="#6FA8FF"/>
<stop offset="1" stop-color="#C77CFF"/>
</linearGradient>
<linearGradient id="paint7_linear_97_202" x1="51.2545" y1="12.3399" x2="65.8245" y2="12.3399" gradientUnits="userSpaceOnUse">
<stop stop-color="#6FA8FF"/>
<stop offset="1" stop-color="#C77CFF"/>
</linearGradient>
<linearGradient id="paint8_linear_97_202" x1="59.9045" y1="11.06" x2="72.0646" y2="11.06" gradientUnits="userSpaceOnUse">
<stop stop-color="#6FA8FF"/>
<stop offset="1" stop-color="#C77CFF"/>
</linearGradient>
<linearGradient id="paint9_linear_97_202" x1="53.5345" y1="43.18" x2="54.4845" y2="43.18" gradientUnits="userSpaceOnUse">
<stop stop-color="#6FA8FF"/>
<stop offset="1" stop-color="#C77CFF"/>
</linearGradient>
<linearGradient id="paint10_linear_97_202" x1="53.4945" y1="25" x2="54.5845" y2="25" gradientUnits="userSpaceOnUse">
<stop stop-color="#6FA8FF"/>
<stop offset="1" stop-color="#C77CFF"/>
</linearGradient>
<linearGradient id="paint11_linear_97_202" x1="54.9945" y1="42.69" x2="55.6045" y2="42.69" gradientUnits="userSpaceOnUse">
<stop stop-color="#6FA8FF"/>
<stop offset="1" stop-color="#C77CFF"/>
</linearGradient>
<linearGradient id="paint12_linear_97_202" x1="54.5845" y1="25.01" x2="55.6145" y2="25.01" gradientUnits="userSpaceOnUse">
<stop stop-color="#6FA8FF"/>
<stop offset="1" stop-color="#C77CFF"/>
</linearGradient>
<linearGradient id="paint13_linear_97_202" x1="59.7845" y1="23.44" x2="63.2445" y2="23.44" gradientUnits="userSpaceOnUse">
<stop stop-color="#6FA8FF"/>
<stop offset="1" stop-color="#C77CFF"/>
</linearGradient>
<linearGradient id="paint14_linear_97_202" x1="81.2745" y1="37.25" x2="91.8145" y2="37.25" gradientUnits="userSpaceOnUse">
<stop stop-color="#6FA8FF"/>
<stop offset="1" stop-color="#C77CFF"/>
</linearGradient>
<linearGradient id="paint15_linear_97_202" x1="81.2046" y1="33.7" x2="91.9545" y2="33.7" gradientUnits="userSpaceOnUse">
<stop stop-color="#6FA8FF"/>
<stop offset="1" stop-color="#C77CFF"/>
</linearGradient>
<linearGradient id="paint16_linear_97_202" x1="92.2445" y1="37.61" x2="92.2745" y2="37.61" gradientUnits="userSpaceOnUse">
<stop stop-color="#6FA8FF"/>
<stop offset="1" stop-color="#C77CFF"/>
</linearGradient>
<linearGradient id="paint17_linear_97_202" x1="52.2945" y1="69.83" x2="84.6145" y2="69.83" gradientUnits="userSpaceOnUse">
<stop stop-color="#6FA8FF"/>
<stop offset="1" stop-color="#C77CFF"/>
</linearGradient>
<linearGradient id="paint18_linear_97_202" x1="32.3445" y1="54.63" x2="53.4045" y2="54.63" gradientUnits="userSpaceOnUse">
<stop stop-color="#6FA8FF"/>
<stop offset="1" stop-color="#C77CFF"/>
</linearGradient>
<linearGradient id="paint19_linear_97_202" x1="-0.0154377" y1="45.36" x2="52.1346" y2="45.36" gradientUnits="userSpaceOnUse">
<stop stop-color="#6FA8FF"/>
<stop offset="1" stop-color="#C77CFF"/>
</linearGradient>
<linearGradient id="paint20_linear_97_202" x1="45.0145" y1="48.5" x2="58.2445" y2="48.5" gradientUnits="userSpaceOnUse">
<stop stop-color="#6FA8FF"/>
<stop offset="1" stop-color="#C77CFF"/>
</linearGradient>
<linearGradient id="paint21_linear_97_202" x1="65.6045" y1="48.58" x2="94.3145" y2="48.58" gradientUnits="userSpaceOnUse">
<stop stop-color="#6FA8FF"/>
<stop offset="1" stop-color="#C77CFF"/>
</linearGradient>
<linearGradient id="paint22_linear_97_202" x1="62.0345" y1="38.06" x2="97.2645" y2="38.06" gradientUnits="userSpaceOnUse">
<stop stop-color="#6FA8FF"/>
<stop offset="1" stop-color="#C77CFF"/>
</linearGradient>
<linearGradient id="paint23_linear_97_202" x1="47.6446" y1="12.38" x2="59.9046" y2="12.38" gradientUnits="userSpaceOnUse">
<stop stop-color="#6FA8FF"/>
<stop offset="1" stop-color="#C77CFF"/>
</linearGradient>
<linearGradient id="paint24_linear_97_202" x1="47.6546" y1="12.38" x2="72.0545" y2="12.38" gradientUnits="userSpaceOnUse">
<stop stop-color="#6FA8FF"/>
<stop offset="1" stop-color="#C77CFF"/>
</linearGradient>
<linearGradient id="paint25_linear_97_202" x1="26.9346" y1="64.8099" x2="49.5646" y2="64.8099" gradientUnits="userSpaceOnUse">
<stop stop-color="#6FA8FF"/>
<stop offset="1" stop-color="#C77CFF"/>
</linearGradient>
<linearGradient id="paint26_linear_97_202" x1="55.6045" y1="33.81" x2="55.6145" y2="33.81" gradientUnits="userSpaceOnUse">
<stop stop-color="#6FA8FF"/>
<stop offset="1" stop-color="#C77CFF"/>
</linearGradient>
<linearGradient id="paint27_linear_97_202" x1="53.4945" y1="34.25" x2="53.5345" y2="34.25" gradientUnits="userSpaceOnUse">
<stop stop-color="#6FA8FF"/>
<stop offset="1" stop-color="#C77CFF"/>
</linearGradient>
<linearGradient id="paint28_linear_97_202" x1="54.4845" y1="43.35" x2="54.9945" y2="43.35" gradientUnits="userSpaceOnUse">
<stop stop-color="#6FA8FF"/>
<stop offset="1" stop-color="#C77CFF"/>
</linearGradient>
<linearGradient id="paint29_linear_97_202" x1="53.4945" y1="33.93" x2="55.6145" y2="33.93" gradientUnits="userSpaceOnUse">
<stop stop-color="#6FA8FF"/>
<stop offset="1" stop-color="#C77CFF"/>
</linearGradient>
<linearGradient id="paint30_linear_97_202" x1="29.8245" y1="15.1" x2="40.0145" y2="15.1" gradientUnits="userSpaceOnUse">
<stop stop-color="#6FA8FF"/>
<stop offset="1" stop-color="#C77CFF"/>
</linearGradient>
<linearGradient id="paint31_linear_97_202" x1="40.0145" y1="15.01" x2="41.3645" y2="15.01" gradientUnits="userSpaceOnUse">
<stop stop-color="#6FA8FF"/>
<stop offset="1" stop-color="#C77CFF"/>
</linearGradient>
<linearGradient id="paint32_linear_97_202" x1="29.8244" y1="14.4" x2="41.3645" y2="14.4" gradientUnits="userSpaceOnUse">
<stop stop-color="#6FA8FF"/>
<stop offset="1" stop-color="#C77CFF"/>
</linearGradient>
<linearGradient id="paint33_linear_97_202" x1="67.7545" y1="38.94" x2="75.6746" y2="38.94" gradientUnits="userSpaceOnUse">
<stop stop-color="#6FA8FF"/>
<stop offset="1" stop-color="#C77CFF"/>
</linearGradient>
<linearGradient id="paint34_linear_97_202" x1="75.6746" y1="41.77" x2="78.7845" y2="41.77" gradientUnits="userSpaceOnUse">
<stop stop-color="#6FA8FF"/>
<stop offset="1" stop-color="#C77CFF"/>
</linearGradient>
<linearGradient id="paint35_linear_97_202" x1="74.3745" y1="31.34" x2="75.0245" y2="31.34" gradientUnits="userSpaceOnUse">
<stop stop-color="#6FA8FF"/>
<stop offset="1" stop-color="#C77CFF"/>
</linearGradient>
<linearGradient id="paint36_linear_97_202" x1="68.9945" y1="33.31" x2="70.0546" y2="33.31" gradientUnits="userSpaceOnUse">
<stop stop-color="#6FA8FF"/>
<stop offset="1" stop-color="#C77CFF"/>
</linearGradient>
<linearGradient id="paint37_linear_97_202" x1="91.9545" y1="34.52" x2="91.9745" y2="34.52" gradientUnits="userSpaceOnUse">
<stop stop-color="#6FA8FF"/>
<stop offset="1" stop-color="#C77CFF"/>
</linearGradient>
<linearGradient id="paint38_linear_97_202" x1="91.8145" y1="37.21" x2="92.2445" y2="37.21" gradientUnits="userSpaceOnUse">
<stop stop-color="#6FA8FF"/>
<stop offset="1" stop-color="#C77CFF"/>
</linearGradient>
<linearGradient id="paint39_linear_97_202" x1="81.2745" y1="38.2" x2="91.1846" y2="38.2" gradientUnits="userSpaceOnUse">
<stop stop-color="#6FA8FF"/>
<stop offset="1" stop-color="#C77CFF"/>
</linearGradient>
<linearGradient id="paint40_linear_97_202" x1="91.1846" y1="38.2" x2="92.2745" y2="38.2" gradientUnits="userSpaceOnUse">
<stop stop-color="#6FA8FF"/>
<stop offset="1" stop-color="#C77CFF"/>
</linearGradient>
<linearGradient id="paint41_linear_97_202" x1="91.1846" y1="42.33" x2="92.2845" y2="42.33" gradientUnits="userSpaceOnUse">
<stop stop-color="#6FA8FF"/>
<stop offset="1" stop-color="#C77CFF"/>
</linearGradient>
<linearGradient id="paint42_linear_97_202" x1="91.1945" y1="40.94" x2="91.6245" y2="40.94" gradientUnits="userSpaceOnUse">
<stop stop-color="#6FA8FF"/>
<stop offset="1" stop-color="#C77CFF"/>
</linearGradient>
<linearGradient id="paint43_linear_97_202" x1="51.2545" y1="19.83" x2="68.4845" y2="19.83" gradientUnits="userSpaceOnUse">
<stop stop-color="#6FA8FF"/>
<stop offset="1" stop-color="#C77CFF"/>
</linearGradient>
<linearGradient id="paint44_linear_97_202" x1="41.5446" y1="44.07" x2="46.8645" y2="44.07" gradientUnits="userSpaceOnUse">
<stop stop-color="#6FA8FF"/>
<stop offset="1" stop-color="#C77CFF"/>
</linearGradient>
<linearGradient id="paint45_linear_97_202" x1="28.0945" y1="51.25" x2="33.4146" y2="51.25" gradientUnits="userSpaceOnUse">
<stop stop-color="#6FA8FF"/>
<stop offset="1" stop-color="#C77CFF"/>
</linearGradient>
<linearGradient id="paint46_linear_97_202" x1="44.8145" y1="64.61" x2="50.1445" y2="64.61" gradientUnits="userSpaceOnUse">
<stop stop-color="#6FA8FF"/>
<stop offset="1" stop-color="#C77CFF"/>
</linearGradient>
</defs>
</svg>
