<svg width="20" height="20" viewBox="0 0 20 20" fill="none" xmlns="http://www.w3.org/2000/svg">
<path d="M17.04 17.0401H14.08V12.4001C14.08 11.2901 14.06 9.87012 12.54 9.87012C11.02 9.87012 10.76 11.0801 10.76 12.3201V17.0401H7.8V7.50012H10.65V8.80012H10.69C11.27 7.81012 12.35 7.22012 13.5 7.26012C16.5 7.26012 17.06 9.24012 17.06 11.8101V17.0501L17.04 17.0401ZM4.45 6.19012C3.5 6.19012 2.73 5.42012 2.73 4.47012C2.73 3.52012 3.5 2.75012 4.45 2.75012C5.4 2.75012 6.17001 3.52012 6.17001 4.47012C6.17001 5.42012 5.4 6.19012 4.45 6.19012ZM5.93 17.0401H2.96001V7.50012H5.93V17.0401ZM18.52 0.000115604H1.48C0.670003 0.000115604 0.01 0.640118 0 1.44012V18.5501C0 19.3601 0.670003 20.0001 1.48 19.9901H18.52C19.33 19.9901 19.99 19.3501 20 18.5501V1.44012C19.99 0.630118 19.32 -0.0098844 18.52 0.000115604Z" fill="#1B66D1"/>
</svg>
