<svg width="29" height="21" viewBox="0 0 29 21" fill="none" xmlns="http://www.w3.org/2000/svg">
<path d="M27.79 3.13C27.46 1.9 26.5 0.929998 25.28 0.599998C23.07 -1.54972e-06 14.19 0 14.19 0C14.19 0 5.31 -1.54972e-06 3.1 0.599998C1.88 0.929998 0.92 1.9 0.59 3.13C1.78814e-07 5.36 0 10.01 0 10.01C0 10.01 1.78814e-07 14.66 0.59 16.89C0.92 18.12 1.88 19.09 3.1 19.42C5.31 20.02 14.19 20.02 14.19 20.02C14.19 20.02 23.07 20.02 25.28 19.42C26.5 19.09 27.46 18.12 27.79 16.89C28.38 14.66 28.38 10.01 28.38 10.01C28.38 10.01 28.38 5.36 27.79 3.13ZM11.28 14.23V5.78999L18.7 10.01L11.28 14.23Z" fill="#1B66D1"/>
</svg>